<?xml version="1.0" encoding="utf-8"?>
<svg id="e41vuxsj5x71" xmlns="http://www.w3.org/2000/svg" xmlns:xlink="http://www.w3.org/1999/xlink" viewBox="0 0 222 140" shape-rendering="geometricPrecision" text-rendering="geometricPrecision"><path id="e41vuxsj5x72" d="M40.334000,139.167000L38.457000,139.167000L44.298000,101.848000L49.096000,101.848000L40.334000,139.167000Z" fill="rgb(184,171,165)" stroke="none" stroke-width="1"/><path id="e41vuxsj5x73" d="M14.467000,139.167000L12.590000,139.167000L18.431000,101.848000L23.229000,101.848000L14.467000,139.167000Z" fill="rgb(184,171,165)" stroke="none" stroke-width="1"/><path id="e41vuxsj5x74" d="M186.045000,139.376000L187.922000,139.376000L182.081000,102.057000L177.283000,102.057000L186.045000,139.376000Z" fill="rgb(184,171,165)" stroke="none" stroke-width="1"/><path id="e41vuxsj5x75" d="M147.245000,139.167000L145.367000,139.167000L151.208000,101.848000L156.006000,101.848000L147.245000,139.167000Z" fill="rgb(184,171,165)" stroke="none" stroke-width="1"/><g id="e41vuxsj5x76" transform="matrix(0.99995979886684 0.00896664096424 -0.00896664096424 0.99995979886684 0.77694427862500 -0.74155460943553)"><path id="e41vuxsj5x77" d="M61.510000,51.624000C61.510000,51.624000,70.897000,38.177000,73.401000,35.779000C75.904000,33.382000,85.083000,32.443000,85.187000,33.173000C85.291000,33.902000,79.972000,35.675000,79.972000,35.675000C79.972000,35.675000,80.911000,39.115000,80.076000,40.053000C79.242000,40.991000,74.131000,41.720000,74.131000,41.720000C74.131000,41.720000,65.369000,61.318000,62.658000,63.090000C59.946000,64.862000,57.443000,63.820000,56.191000,62.048000C54.939000,60.276000,51.289000,49.643000,51.289000,49.643000L61.510000,51.624000Z" transform="matrix(1 0 0 1 0.05679386000000 0.00046615999999)" fill="rgb(254,180,148)" stroke="none" stroke-width="1"/><path id="e41vuxsj5x78" d="M61.091000,51.603000L50.973000,55.564000C50.973000,55.564000,45.967000,48.997000,46.280000,43.680000C46.593000,38.363000,52.434000,37.113000,55.667000,40.657000C58.900000,44.098000,61.091000,51.499000,61.091000,51.603000Z" fill="rgb(243,114,83)" stroke="none" stroke-width="1"/></g><path id="e41vuxsj5x79" d="M124.716000,129.264000L125.342000,136.770000C125.446000,138.020000,124.403000,139.167000,123.153000,139.167000L107.924000,139.167000C105.838000,139.167000,104.899000,136.561000,106.568000,135.206000L113.452000,129.785000C113.869000,129.472000,114.390000,129.264000,114.912000,129.264000L122.839000,129.368000L122.943000,129.368000L124.716000,129.264000Z" fill="rgb(73,73,73)" stroke="none" stroke-width="1"/><path id="e41vuxsj5x710" d="M134.102000,129.473000L134.729000,137.395000C134.833000,138.438000,133.999000,139.376000,132.956000,139.376000L116.163000,139.376000C114.494000,139.376000,113.660000,137.188000,115.017000,136.145000L122.839000,129.891000C123.152000,129.578000,123.569000,129.473000,123.985000,129.473000L132.016000,129.577000L132.120000,129.577000L134.102000,129.473000Z" fill="rgb(73,73,73)" stroke="none" stroke-width="1"/><path id="e41vuxsj5x711" d="M49.097000,118.215000L43.882000,123.427000C42.943000,124.365000,43.048000,125.930000,44.195000,126.764000L55.981000,134.998000C57.649000,136.144000,59.840000,134.685000,59.318000,132.705000L57.545000,125.825000C57.441000,125.408000,57.128000,124.991000,56.815000,124.678000L50.661000,119.571000L50.557000,119.467000L49.097000,118.215000Z" fill="rgb(73,73,73)" stroke="none" stroke-width="1"/><path id="e41vuxsj5x712" d="M67.871000,129.264000L67.246000,136.561000C67.142000,138.020000,68.289000,139.167000,69.644000,139.167000L84.038000,139.167000C86.332000,139.167000,87.375000,136.248000,85.602000,134.789000L79.344000,129.785000C78.927000,129.472000,78.301000,129.264000,77.780000,129.264000L69.957000,129.368000C69.853000,129.368000,69.853000,129.368000,69.749000,129.368000L67.871000,129.264000Z" fill="rgb(73,73,73)" stroke="none" stroke-width="1"/><path id="e41vuxsj5x713" d="M33.556000,58.377000L6.437000,58.377000C6.437000,58.377000,-2.324000,57.543000,0.596000,65.049000C3.516000,72.555000,13.947000,98.407000,13.947000,98.407000C13.947000,98.407000,15.407000,103.202000,22.708000,103.828000L70.270000,103.828000C70.270000,103.828000,74.859000,102.994000,72.773000,97.990000C70.687000,92.986000,70.687000,92.986000,70.687000,92.986000L33.556000,58.377000Z" fill="rgb(226,210,202)" stroke="none" stroke-width="1"/><path id="e41vuxsj5x714" d="M188.445000,58.377000L215.564000,58.377000C215.564000,58.377000,224.325000,57.543000,221.404000,65.049000C218.484000,72.555000,208.054000,98.407000,208.054000,98.407000C208.054000,98.407000,206.593000,103.202000,199.291000,103.828000L151.730000,103.828000C151.730000,103.828000,147.140000,102.994000,149.226000,97.990000C151.312000,92.986000,151.312000,92.986000,151.312000,92.986000L188.445000,58.377000Z" fill="rgb(226,210,202)" stroke="none" stroke-width="1"/><path id="e41vuxsj5x715" d="M175.512000,81.208000C178.014000,81.208000,179.893000,83.396000,179.684000,85.898000C179.266000,89.546000,177.807000,94.447000,172.382000,96.010000C165.290000,98.095000,149.227000,97.782000,142.343000,97.469000C140.466000,97.365000,138.797000,98.616000,138.171000,100.388000L128.784000,127.492000C128.158000,129.265000,126.593000,130.411000,124.716000,130.411000L117.102000,130.411000C114.182000,130.411000,112.096000,127.598000,113.035000,124.782000L124.717000,89.339000C124.717000,89.339000,126.280000,83.397000,132.435000,81.833000C138.590000,80.269000,152.357000,80.895000,152.357000,80.895000L175.512000,81.208000Z" fill="rgb(73,73,73)" stroke="none" stroke-width="1"/><path id="e41vuxsj5x716" d="M183.229000,80.479000C185.733000,80.375000,187.819000,82.356000,187.819000,84.858000C187.819000,89.027000,186.567000,94.657000,180.727000,96.428000C173.739000,98.513000,157.780000,98.200000,150.791000,97.887000C148.809000,97.783000,147.036000,99.034000,146.410000,100.910000L137.128000,127.701000C136.502000,129.474000,134.833000,130.724000,132.852000,130.724000L125.655000,130.724000C122.631000,130.724000,120.440000,127.701000,121.379000,124.886000L133.165000,89.652000C133.165000,89.652000,134.729000,83.710000,140.883000,82.146000C146.620000,80.687000,159.136000,81.103000,160.701000,81.208000C160.805000,81.208000,160.909000,81.208000,161.014000,81.208000L183.229000,80.479000Z" fill="rgb(86,80,78)" stroke="none" stroke-width="1"/><path id="e41vuxsj5x717" d="M124.193000,52.645000L139.109000,32.526000C139.109000,32.526000,141.820000,28.148000,147.765000,27.105000C153.711000,26.063000,166.123000,24.499000,166.123000,24.499000C166.123000,24.499000,172.381000,23.561000,175.406000,28.147000C178.430000,32.734000,190.634000,63.590000,190.321000,65.571000C190.008000,67.551000,185.627000,72.138000,185.627000,72.138000L187.087000,78.810000L147.350000,78.810000C147.350000,78.810000,150.791000,68.281000,148.393000,61.505000C145.994000,54.729000,143.594000,50.872000,143.594000,50.872000L130.348000,64.424000C130.348000,64.424000,128.159000,66.613000,125.550000,67.030000C122.944000,67.447000,123.881000,60.984000,123.881000,60.984000L124.193000,52.645000Z" fill="rgb(45,84,160)" stroke="none" stroke-width="1"/><path id="e41vuxsj5x718" d="M82.786000,87.463000C83.099000,81.730000,78.093000,81.730000,78.093000,81.730000L70.493000,81.538000C70.251000,81.493000,70.013000,81.443000,69.749000,81.417000C65.577000,81,60.362000,81,57.337000,81C55.877000,81,54.625000,80.166000,54.104000,78.811000L51.184000,72.035000C50.767000,70.993000,49.828000,70.264000,48.785000,69.951000L37.729000,67.345000C36.165000,67.032000,34.600000,67.658000,33.870000,69.013000L31.367000,73.600000C31.367000,73.600000,23.544000,88.194000,30.950000,94.344000C36.687000,99.035000,53.062000,97.889000,60.363000,97.055000C61.258000,96.960000,62.079000,97.219000,62.740000,97.689000L50.454000,114.778000C48.785000,116.966000,49.411000,120.198000,51.705000,121.761000L55.147000,124.055000C57.442000,125.514000,60.467000,124.993000,62.031000,122.701000C63.107000,121.115000,64.438000,119.138000,65.898000,116.940000L66.933000,127.287000C67.141000,129.059000,68.602000,130.414000,70.375000,130.414000L76.529000,130.414000C78.615000,130.414000,80.284000,128.642000,80.075000,126.558000L77.248000,99.046000C80.390000,93.720000,82.704000,89.239000,82.786000,87.463000Z" fill="rgb(45,84,160)" stroke="none" stroke-width="1"/><path id="e41vuxsj5x719" d="M40.647000,35.131000C40.647000,35.131000,43.359000,43.262000,48.887000,42.637000C54.415000,42.011000,49.930000,35.653000,50.347000,35.965000C52.850000,37.841000,54.728000,39.405000,56.084000,40.864000C56.814000,41.698000,56.084000,44.825000,56.814000,45.763000C58.378000,47.952000,59.943000,52.539000,59.839000,54.415000C59.422000,59.210000,56.919000,59.836000,53.059000,61.087000L58.170000,82.353000L25.732000,90.796000L32.720000,50.454000C32.720000,50.454000,37.413000,46.285000,36.996000,41.906000C36.579000,37.527000,33.867000,36.173000,31.990000,36.381000L40.647000,35.131000Z" fill="rgb(243,114,83)" stroke="none" stroke-width="1"/><path id="e41vuxsj5x720" d="M24.586000,46.910000L33.243000,50.037000C33.243000,50.037000,27.089000,60.878000,28.028000,61.816000C28.966000,62.858000,40.648000,74.638000,42.422000,75.056000C44.195000,75.472000,53.791000,75.890000,54.730000,76.932000C55.669000,77.974000,54.730000,78.495000,54.730000,78.495000L38.563000,78.495000C38.563000,78.495000,19.476000,66.716000,18.850000,64.005000C18.224000,61.296000,24.586000,46.910000,24.586000,46.910000Z" fill="rgb(254,180,148)" stroke="none" stroke-width="1"/><path id="e41vuxsj5x721" d="M117.622000,78.393000C117.101000,78.393000,116.684000,77.975000,116.684000,77.454000C116.684000,76.933000,117.102000,76.516000,117.622000,76.516000L147.453000,76.516000C147.974000,76.516000,148.391000,76.933000,148.391000,77.454000C148.391000,77.975000,147.975000,78.393000,147.453000,78.393000L117.622000,78.393000Z" fill="rgb(226,210,202)" stroke="none" stroke-width="1"/><g id="e41vuxsj5x722"><path id="e41vuxsj5x723" d="M141.195000,9.174000C141.195000,9.174000,140.882000,20.953000,143.699000,23.351000C146.515000,25.748000,149.019000,24.185000,149.019000,24.185000L149.853000,29.293000C149.853000,29.293000,150.999000,31.169000,153.816000,30.961000C156.633000,30.753000,159.552000,28.668000,159.866000,27.312000C160.179000,25.957000,159.240000,24.185000,159.240000,24.185000L156.215000,15.428000C156.215000,15.428000,157.676000,9.799000,153.192000,6.359000C148.707000,2.919000,141.405000,7.714000,141.405000,7.714000L141.195000,9.174000Z" transform="matrix(0.99996892929955 0.00788292049442 -0.00788292049442 0.99996892929955 0.24444165824957 -1.25977062330884)" fill="rgb(254,180,148)" stroke="none" stroke-width="1"/><path id="e41vuxsj5x724" d="M151.938000,12.511000C151.938000,12.511000,152.356000,9.905000,154.754000,10.322000C157.152000,10.739000,155.067000,14.804000,156.006000,15.638000L157.258000,18.974000C157.466000,16.576000,159.031000,11.260000,158.822000,7.090000C158.613000,2.921000,155.484000,2.608000,155.484000,2.608000C155.484000,2.608000,153.503000,-1.249000,148.183000,0.419000C142.863000,2.087000,141.298000,2.504000,139.734000,2.191000C138.170000,1.878000,138.066000,1.566000,138.482000,3.129000C138.900000,4.692000,138.169000,8.549000,142.654000,9.279000C147.140000,10.008000,148.913000,7.611000,150.374000,8.966000C151.834000,10.321000,151.103000,13.344000,151.103000,13.344000L151.938000,12.511000Z" transform="matrix(1 0 0 1 0.18400953000000 -0.24655104000000)" fill="rgb(5,0,101)" stroke="none" stroke-width="1"/></g><path id="e41vuxsj5x725" d="M6.437000,81.312000C5.603000,81.312000,4.977000,80.686000,4.977000,79.852000C4.977000,79.018000,5.603000,78.393000,6.437000,78.393000L204.090000,78.393000C204.924000,78.393000,205.550000,79.018000,205.550000,79.852000C205.550000,80.686000,204.924000,81.312000,204.090000,81.312000L6.437000,81.312000Z" fill="rgb(145,134,129)" stroke="none" stroke-width="1"/><path id="e41vuxsj5x726" d="M151.416000,71.409000L180.621000,62.235000C180.621000,62.235000,187.609000,59.942000,190.113000,64.216000C192.616000,68.490000,189.070000,72.763000,184.271000,73.703000C179.474000,74.641000,151.728000,76.517000,151.728000,76.517000L135.562000,76.517000C135.562000,76.517000,136.187000,74.849000,139.109000,74.223000C142.029000,73.598000,151.416000,71.409000,151.416000,71.409000Z" transform="matrix(0.99991218132795 0.01325253304039 -0.01325253304039 0.99991218132795 -3.48825681835106 -2.53175618340205)" fill="rgb(254,180,148)" stroke="none" stroke-width="1"/><path id="e41vuxsj5x727" d="M112.826000,40.031000C112.826000,40.031000,127.115000,54.730000,128.993000,60.672000C130.870000,66.614000,126.594000,68.907000,122.525000,67.552000C118.458000,66.197000,106.671000,41.595000,106.671000,41.595000C106.671000,41.595000,97.701000,38.363000,96.971000,36.904000C96.241000,35.445000,99.057000,33.777000,100.726000,33.777000C102.395000,33.777000,108.340000,35.653000,108.340000,35.653000C108.340000,35.653000,104.898000,32.735000,105.524000,31.796000C106.150000,30.858000,111.469000,36.070000,111.782000,37.217000C112.095000,38.363000,112.303000,38.989000,112.303000,38.989000L112.826000,40.031000Z" fill="rgb(254,180,148)" stroke="none" stroke-width="1"/><path id="e41vuxsj5x728" d="M84.663000,78.289000C84.142000,78.289000,83.725000,77.873000,83.620000,77.455000L77.883000,50.560000C77.779000,50.039000,78.092000,49.726000,78.509000,49.726000L120.646000,49.726000C121.168000,49.726000,121.585000,50.143000,121.689000,50.560000L127.426000,77.455000C127.530000,77.976000,127.217000,78.289000,126.800000,78.289000L84.663000,78.289000Z" fill="rgb(226,210,202)" stroke="none" stroke-width="1"/><path id="e41vuxsj5x729" d="M201.586000,139.064000L196.684000,139.064000L196.684000,81.104000L201.586000,81.104000L201.586000,139.064000Z" fill="rgb(145,134,129)" stroke="none" stroke-width="1"/><path id="e41vuxsj5x730" d="M19.371000,139.064000L14.469000,139.064000L14.469000,81.104000L19.371000,81.104000L19.371000,139.064000Z" fill="rgb(145,134,129)" stroke="none" stroke-width="1"/><path id="e41vuxsj5x731" d="M22.395000,49.205000L32.512000,53.166000C32.512000,53.166000,37.519000,46.599000,37.206000,41.282000C36.893000,35.965000,31.052000,34.715000,27.819000,38.259000C24.585000,41.803000,22.395000,49.205000,22.395000,49.205000Z" fill="rgb(243,114,83)" stroke="none" stroke-width="1"/><g id="e41vuxsj5x732"><path id="e41vuxsj5x733" d="M61.822000,19.912000C61.822000,19.912000,63.282000,27.417000,59.841000,33.776000C56.399000,40.135000,54.521000,41.177000,54.521000,41.177000L44.195000,37.946000L53.791000,16.576000L60.988000,18.139000L61.822000,19.912000Z" fill="rgb(5,0,101)" stroke="none" stroke-width="1"/><path id="e41vuxsj5x734" d="M60.049000,20.330000C60.049000,20.330000,58.902000,28.982000,56.086000,31.171000C53.270000,33.360000,50.766000,32.213000,50.766000,32.213000L50.245000,35.757000L52.331000,37.946000C52.123000,36.904000,54.730000,41.177000,49.515000,44.409000C44.300000,47.640000,38.772000,36.799000,38.772000,36.799000C38.772000,36.799000,42.318000,19.703000,46.073000,16.784000C49.828000,13.865000,59.424000,18.035000,59.424000,18.035000L60.049000,20.330000Z" fill="rgb(254,180,148)" stroke="none" stroke-width="1"/><path id="e41vuxsj5x735" d="M49.306000,21.580000C49.306000,21.580000,48.159000,18.870000,46.385000,20.538000C44.612000,22.206000,46.177000,24.916000,46.907000,25.438000C47.637000,25.959000,47.950000,25.959000,47.950000,25.959000C47.950000,25.959000,46.073000,34.820000,40.649000,36.592000C35.225000,38.364000,32.305000,37.530000,29.801000,38.364000C27.298000,39.198000,26.672000,40.136000,26.672000,40.136000C26.672000,40.136000,27.402000,31.067000,31.470000,25.542000C35.538000,20.017000,39.501000,22.519000,42.735000,17.724000C45.968000,12.929000,48.367000,10.740000,52.539000,10.427000C56.711000,10.114000,57.650000,13.346000,57.650000,13.346000C57.650000,13.346000,60.362000,12.616000,62.135000,14.596000C63.908000,16.577000,63.491000,19.391000,63.491000,19.391000C63.491000,19.391000,60.153000,20.850000,56.294000,20.016000C52.435000,19.182000,51.705000,19.078000,51.705000,19.078000C51.705000,19.078000,51.705000,20.433000,50.975000,21.579000C50.245000,22.726000,49.515000,22.726000,49.515000,22.726000L49.306000,21.580000Z" fill="rgb(5,0,101)" stroke="none" stroke-width="1"/></g><path id="e41vuxsj5x736" d="M65.994000,81.313000C65.994000,81.313000,61.196000,97.470000,61.926000,98.618000C62.656000,99.764000,24.273000,101.641000,25.837000,90.800000C27.402000,79.958000,45.237000,81.314000,45.237000,81.314000L65.994000,81.314000Z" fill="rgb(243,114,83)" stroke="none" stroke-width="1"/><script><![CDATA[!function(t,n){"object"==typeof exports&&"undefined"!=typeof module?module.exports=n():"function"==typeof define&&define.amd?define(n):(t=t||self).__SVGATOR_PLAYER__=n()}(this,(function(){"use strict";function t(n){return(t="function"==typeof Symbol&&"symbol"==typeof Symbol.iterator?function(t){return typeof t}:function(t){return t&&"function"==typeof Symbol&&t.constructor===Symbol&&t!==Symbol.prototype?"symbol":typeof t})(n)}function n(t,n){if(!(t instanceof n))throw new TypeError("Cannot call a class as a function")}function r(t,n){for(var r=0;r<n.length;r++){var e=n[r];e.enumerable=e.enumerable||!1,e.configurable=!0,"value"in e&&(e.writable=!0),Object.defineProperty(t,e.key,e)}}function e(t,n,e){return n&&r(t.prototype,n),e&&r(t,e),t}var i=Math.abs;function u(t){return t}function o(t,n,r){var e=1-r;return 3*r*e*(t*e+n*r)+r*r*r}function a(){var t=arguments.length>0&&void 0!==arguments[0]?arguments[0]:0,n=arguments.length>1&&void 0!==arguments[1]?arguments[1]:0,r=arguments.length>2&&void 0!==arguments[2]?arguments[2]:1,e=arguments.length>3&&void 0!==arguments[3]?arguments[3]:1;return t<0||t>1||r<0||r>1?null:i(t-n)<=1e-5&&i(r-e)<=1e-5?u:function(u){if(u<=0)return t>0?u*n/t:0===n&&r>0?u*e/r:0;if(u>=1)return r<1?1+(u-1)*(e-1)/(r-1):1===r&&t<1?1+(u-1)*(n-1)/(t-1):1;for(var a,l=0,f=1;l<f;){var s=o(t,r,a=(l+f)/2);if(i(u-s)<1e-5)break;s<u?l=a:f=a}return o(n,e,a)}}function l(){return 1}function f(t){return 1===t?1:0}function s(){var t=arguments.length>0&&void 0!==arguments[0]?arguments[0]:1,n=arguments.length>1&&void 0!==arguments[1]?arguments[1]:0;if(1===t){if(0===n)return f;if(1===n)return l}var r=1/t;return function(t){return t>=1?1:(t+=n*r)-t%r}}function c(t){var n=arguments.length>1&&void 0!==arguments[1]?arguments[1]:2;if(Number.isInteger(t))return t;var r=Math.pow(10,n);return Math.round(t*r)/r}var v=Math.PI/180;function h(t,n,r){return t>=.5?r:n}function y(t,n,r){return 0===t||n===r?n:t*(r-n)+n}function d(t,n,r){var e=y(t,n,r);return e<=0?0:e}function g(t,n,r){return 0===t?n:1===t?r:{x:y(t,n.x,r.x),y:y(t,n.y,r.y)}}function m(t,n,r){return 0===t?n:1===t?r:{x:d(t,n.x,r.x),y:d(t,n.y,r.y)}}function p(t,n,r){var e=function(t,n,r){return Math.round(y(t,n,r))}(t,n,r);return e<=0?0:e>=255?255:e}function b(t,n,r){return 0===t?n:1===t?r:{r:p(t,n.r,r.r),g:p(t,n.g,r.g),b:p(t,n.b,r.b),a:y(t,null==n.a?1:n.a,null==r.a?1:r.a)}}function w(t,n,r){if(0===t)return n;if(1===t)return r;var e=n.length;if(e!==r.length)return h(t,n,r);for(var i=[],u=0;u<e;u++)i.push(b(t,n[u],r[u]));return i}function A(t,n,r){var e=n.length;if(e!==r.length)return h(t,n,r);for(var i=new Array(e),u=0;u<e;u++)i[u]=y(t,n[u],r[u]);return i}function x(t,n){for(var r=[],e=0;e<t;e++)r.push(n);return r}function k(t,n){if(--n<=0)return t;var r=(t=Object.assign([],t)).length;do{for(var e=0;e<r;e++)t.push(t[e])}while(--n>0);return t}var S=/\.0+$/g;function _(t){return Number.isInteger(t)?t+"":t.toFixed(6).replace(S,"")}function M(t){var n=arguments.length>1&&void 0!==arguments[1]?arguments[1]:" ";return t&&t.length?t.map(_).join(n):""}function I(t){return _(t.x)+","+_(t.y)}function E(t){return t?null==t.a||t.a>=1?"rgb("+t.r+","+t.g+","+t.b+")":"rgba("+t.r+","+t.g+","+t.b+","+t.a+")":"transparent"}var F={f:null,i:m,u:function(t,n){return function(r){var e=n(r);t.setAttribute("rx",_(e.x)),t.setAttribute("ry",_(e.y))}}},B={f:null,i:function(t,n,r){return 0===t?n:1===t?r:{width:d(t,n.width,r.width),height:d(t,n.height,r.height)}},u:function(t,n){return function(r){var e=n(r);t.setAttribute("width",_(e.width)),t.setAttribute("height",_(e.height))}}},j=Math.sin,q=Math.cos,P=Math.acos,O=Math.asin,z=Math.tan,L=Math.atan2,C=Math.PI/180,R=180/Math.PI,T=Math.sqrt,V=function(){function t(){var r=arguments.length>0&&void 0!==arguments[0]?arguments[0]:1,e=arguments.length>1&&void 0!==arguments[1]?arguments[1]:0,i=arguments.length>2&&void 0!==arguments[2]?arguments[2]:0,u=arguments.length>3&&void 0!==arguments[3]?arguments[3]:1,o=arguments.length>4&&void 0!==arguments[4]?arguments[4]:0,a=arguments.length>5&&void 0!==arguments[5]?arguments[5]:0;n(this,t),this.m=[r,e,i,u,o,a],this.i=null,this.w=null,this.s=null}return e(t,[{key:"point",value:function(t,n){var r=this.m;return{x:r[0]*t+r[2]*n+r[4],y:r[1]*t+r[3]*n+r[5]}}},{key:"translateSelf",value:function(){var t=arguments.length>0&&void 0!==arguments[0]?arguments[0]:0,n=arguments.length>1&&void 0!==arguments[1]?arguments[1]:0;if(!t&&!n)return this;var r=this.m;return r[4]+=r[0]*t+r[2]*n,r[5]+=r[1]*t+r[3]*n,this.w=this.s=this.i=null,this}},{key:"rotateSelf",value:function(){var t=arguments.length>0&&void 0!==arguments[0]?arguments[0]:0;if(t%=360){var n=j(t*=C),r=q(t),e=this.m,i=e[0],u=e[1];e[0]=i*r+e[2]*n,e[1]=u*r+e[3]*n,e[2]=e[2]*r-i*n,e[3]=e[3]*r-u*n,this.w=this.s=this.i=null}return this}},{key:"scaleSelf",value:function(){var t=arguments.length>0&&void 0!==arguments[0]?arguments[0]:1,n=arguments.length>1&&void 0!==arguments[1]?arguments[1]:1;if(1!==t||1!==n){var r=this.m;r[0]*=t,r[1]*=t,r[2]*=n,r[3]*=n,this.w=this.s=this.i=null}return this}},{key:"skewSelf",value:function(t,n){if(n%=360,(t%=360)||n){var r=this.m,e=r[0],i=r[1],u=r[2],o=r[3];t&&(t=z(t*C),r[2]+=e*t,r[3]+=i*t),n&&(n=z(n*C),r[0]+=u*n,r[1]+=o*n),this.w=this.s=this.i=null}return this}},{key:"resetSelf",value:function(){var t=arguments.length>0&&void 0!==arguments[0]?arguments[0]:1,n=arguments.length>1&&void 0!==arguments[1]?arguments[1]:0,r=arguments.length>2&&void 0!==arguments[2]?arguments[2]:0,e=arguments.length>3&&void 0!==arguments[3]?arguments[3]:1,i=arguments.length>4&&void 0!==arguments[4]?arguments[4]:0,u=arguments.length>5&&void 0!==arguments[5]?arguments[5]:0,o=this.m;return o[0]=t,o[1]=n,o[2]=r,o[3]=e,o[4]=i,o[5]=u,this.w=this.s=this.i=null,this}},{key:"recomposeSelf",value:function(){var t=arguments.length>0&&void 0!==arguments[0]?arguments[0]:null,n=arguments.length>1&&void 0!==arguments[1]?arguments[1]:null,r=arguments.length>2&&void 0!==arguments[2]?arguments[2]:null,e=arguments.length>3&&void 0!==arguments[3]?arguments[3]:null,i=arguments.length>4&&void 0!==arguments[4]?arguments[4]:null;return this.isIdentity||this.resetSelf(),t&&(t.x||t.y)&&this.translateSelf(t.x,t.y),n&&this.rotateSelf(n),r&&(r.x&&this.skewSelf(r.x,0),r.y&&this.skewSelf(0,r.y)),!e||1===e.x&&1===e.y||this.scaleSelf(e.x,e.y),i&&(i.x||i.y)&&this.translateSelf(i.x,i.y),this}},{key:"decompose",value:function(){var t=arguments.length>0&&void 0!==arguments[0]?arguments[0]:0,n=arguments.length>1&&void 0!==arguments[1]?arguments[1]:0,r=this.m,e=r[0]*r[0]+r[1]*r[1],i=[[r[0],r[1]],[r[2],r[3]]],u=T(e);if(0===u)return{origin:{x:r[4],y:r[5]},translate:{x:t,y:n},scale:{x:0,y:0},skew:{x:0,y:0},rotate:0};i[0][0]/=u,i[0][1]/=u;var o=r[0]*r[3]-r[1]*r[2]<0;o&&(u=-u);var a=i[0][0]*i[1][0]+i[0][1]*i[1][1];i[1][0]-=i[0][0]*a,i[1][1]-=i[0][1]*a;var l=T(i[1][0]*i[1][0]+i[1][1]*i[1][1]);if(0===l)return{origin:{x:r[4],y:r[5]},translate:{x:t,y:n},scale:{x:u,y:0},skew:{x:0,y:0},rotate:0};i[1][0]/=l,i[1][1]/=l,a/=l;var f=0;return i[1][1]<0?(f=P(i[1][1])*R,i[0][1]<0&&(f=360-f)):f=O(i[0][1])*R,o&&(f=-f),a=L(a,T(i[0][0]*i[0][0]+i[0][1]*i[0][1]))*R,{origin:{x:r[4],y:r[5]},translate:{x:t,y:n},scale:{x:u,y:l},skew:{x:a,y:0},rotate:f}}},{key:"toString",value:function(){return null===this.s&&(this.s="matrix("+this.m.map(N).join(" ")+")"),this.s}},{key:"determinant",get:function(){var t=this.m;return t[0]*t[3]-t[1]*t[2]}},{key:"isIdentity",get:function(){if(null===this.i){var t=this.m;this.i=1===t[0]&&0===t[1]&&0===t[2]&&1===t[3]&&0===t[4]&&0===t[5]}return this.i}}]),t}(),D=/\.0+$/;function N(t){return Number.isInteger(t)?t:t.toFixed(14).replace(D,"")}Object.freeze({M:2,L:2,Z:0,H:1,V:1,C:6,Q:4,T:2,S:4,A:7});function G(t,n,r){return t+(n-t)*r}function $(t,n,r){var e=arguments.length>3&&void 0!==arguments[3]&&arguments[3],i={x:G(t.x,n.x,r),y:G(t.y,n.y,r)};return e&&(i.a=H(t,n)),i}function H(t,n){return Math.atan2(n.y-t.y,n.x-t.x)}function Q(t,n,r,e){var i=1-e;return i*i*t+2*i*e*n+e*e*r}function U(t,n,r,e){return 2*(1-e)*(n-t)+2*e*(r-n)}function Y(t,n,r,e){var i=arguments.length>4&&void 0!==arguments[4]&&arguments[4],u={x:Q(t.x,n.x,r.x,e),y:Q(t.y,n.y,r.y,e)};return i&&(u.a=Z(t,n,r,e)),u}function Z(t,n,r,e){return Math.atan2(U(t.y,n.y,r.y,e),U(t.x,n.x,r.x,e))}function J(t,n,r,e,i){var u=i*i;return i*u*(e-t+3*(n-r))+3*u*(t+r-2*n)+3*i*(n-t)+t}function K(t,n,r,e,i){var u=1-i;return 3*(u*u*(n-t)+2*u*i*(r-n)+i*i*(e-r))}function W(t,n,r,e,i){var u=arguments.length>5&&void 0!==arguments[5]&&arguments[5],o={x:J(t.x,n.x,r.x,e.x,i),y:J(t.y,n.y,r.y,e.y,i)};return u&&(o.a=X(t,n,r,e,i)),o}function X(t,n,r,e,i){return Math.atan2(K(t.y,n.y,r.y,e.y,i),K(t.x,n.x,r.x,e.x,i))}function tt(t,n,r){var e=arguments.length>3&&void 0!==arguments[3]&&arguments[3];if(rt(n)){if(et(r))return Y(n,r.start,r,t,e)}else if(rt(r)){if(n.end)return Y(n,n.end,r,t,e)}else{if(n.end)return r.start?W(n,n.end,r.start,r,t,e):Y(n,n.end,r,t,e);if(r.start)return Y(n,r.start,r,t,e)}return $(n,r,t,e)}function nt(t,n,r){var e=tt(t,n,r,!0);return e.a=function(t){var n=arguments.length>1&&void 0!==arguments[1]&&arguments[1];return n?t+Math.PI:t}(e.a)/v,e}function rt(t){return!t.type||"corner"===t.type}function et(t){return null!=t.start&&!rt(t)}var it=new V;var ut={f:function(t){return t?t.join(" "):""},i:function(n,r,e){if(0===n)return r;if(1===n)return e;var i=r.length;if(i!==e.length)return h(n,r,e);for(var u,o=new Array(i),a=0;a<i;a++){if((u=t(r[a]))!==t(e[a]))return h(n,r,e);if("number"===u)o[a]=y(n,r[a],e[a]);else{if(r[a]!==e[a])return h(n,r,e);o[a]=r[a]}}return o}},ot={f:null,i:A,u:function(t,n){return function(r){var e=n(r);t.setAttribute("x1",_(e[0])),t.setAttribute("y1",_(e[1])),t.setAttribute("x2",_(e[2])),t.setAttribute("y2",_(e[3]))}}},at={f:_,i:y},lt={f:_,i:function(t,n,r){var e=y(t,n,r);return e<=0?0:e>=1?1:e}},ft={f:M,i:function(t,n,r){var e,i,u,o=n.length,a=r.length;if(o!==a)if(0===o)n=x(o=a,0);else if(0===a)a=o,r=x(o,0);else{var l=(u=(e=o)*(i=a)/function(t,n){for(var r;n;)r=n,n=t%n,t=r;return t||1}(e,i))<0?-u:u;n=k(n,Math.floor(l/o)),r=k(r,Math.floor(l/a)),o=a=l}for(var f=[],s=0;s<o;s++)f.push(c(d(t,n[s],r[s]),6));return f}};function st(t,n,r,e,i,u,o,a){return n=function(t,n,r){for(var e,i,u,o=t.length-1,a={},l=0;l<=o;l++)(e=t[l]).e&&(e.e=n(e.e)),e.v&&"g"===(i=e.v).t&&i.r&&(u=r.getElementById(i.r))&&(a[i.r]=u.querySelectorAll("stop"));return a}(t,e,a),function(e){var i,u=r(e,t,ct);return u?"c"===u.t?E(u.v):"g"===u.t?(n[u.r]&&function(t,n){for(var r=0,e=t.length;r<e;r++)t[r].setAttribute("stop-color",E(n[r]))}(n[u.r],u.v),(i=u.r)?"url(#"+i+")":"none"):"none":"none"}}function ct(t,n,r){if(0===t)return n;if(1===t)return r;if(n&&r){var e=n.t;if(e===r.t)switch(n.t){case"c":return{t:e,v:b(t,n.v,r.v)};case"g":if(n.r===r.r)return{t:e,v:w(t,n.v,r.v),r:n.r}}}return h(t,n,r)}var vt={blur:m,brightness:d,contrast:d,"drop-shadow":function(t,n,r){return 0===t?n:1===t?r:{blur:m(t,n.blur,r.blur),offset:g(t,n.offset,r.offset),color:b(t,n.color,r.color)}},grayscale:d,"hue-rotate":y,invert:d,opacity:d,saturate:d,sepia:d};function ht(t,n,r){if(0===t)return n;if(1===t)return r;var e=n.length;if(e!==r.length)return h(t,n,r);for(var i,u=[],o=0;o<e;o++){if(n[o].type!==r[o].type)return n;if(!(i=vt[n[o].type]))return h(t,n,r);u.push({type:n.type,value:i(t,n[o].value,r[o].value)})}return u}var yt={blur:function(t){return t?function(n){t.setAttribute("stdDeviation",I(n))}:null},brightness:function(t,n,r){return(t=gt(r,n))?function(n){n=_(n),t.map((function(t){return t.setAttribute("slope",n)}))}:null},contrast:function(t,n,r){return(t=gt(r,n))?function(n){var r=_((1-n)/2);n=_(n),t.map((function(t){t.setAttribute("slope",n),t.setAttribute("intercept",r)}))}:null},"drop-shadow":function(t,n,r){var e=r.getElementById(n+"-blur");if(!e)return null;var i=r.getElementById(n+"-offset");if(!i)return null;var u=r.getElementById(n+"-flood");return u?function(t){e.setAttribute("stdDeviation",I(t.blur)),i.setAttribute("dx",_(t.offset.x)),i.setAttribute("dy",_(t.offset.y)),u.setAttribute("flood-color",E(t.color))}:null},grayscale:function(t){return t?function(n){t.setAttribute("values",M(function(t){return[.2126+.7874*(t=1-t),.7152-.7152*t,.0722-.0722*t,0,0,.2126-.2126*t,.7152+.2848*t,.0722-.0722*t,0,0,.2126-.2126*t,.7152-.7152*t,.0722+.9278*t,0,0,0,0,0,1,0]}(n)))}:null},"hue-rotate":function(t){return t?function(n){return t.setAttribute("values",_(n))}:null},invert:function(t,n,r){return(t=gt(r,n))?function(n){n=_(n)+" "+_(1-n),t.map((function(t){return t.setAttribute("tableValues",n)}))}:null},opacity:function(t,n,r){return(t=r.getElementById(n+"-A"))?function(n){return t.setAttribute("tableValues","0 "+_(n))}:null},saturate:function(t){return t?function(n){return t.setAttribute("values",_(n))}:null},sepia:function(t){return t?function(n){return t.setAttribute("values",M(function(t){return[.393+.607*(t=1-t),.769-.769*t,.189-.189*t,0,0,.349-.349*t,.686+.314*t,.168-.168*t,0,0,.272-.272*t,.534-.534*t,.131+.869*t,0,0,0,0,0,1,0]}(n)))}:null}};var dt=["R","G","B"];function gt(t,n){var r=dt.map((function(r){return t.getElementById(n+"-"+r)||null}));return-1!==r.indexOf(null)?null:r}var mt={fill:st,"fill-opacity":lt,stroke:st,"stroke-opacity":lt,"stroke-width":at,"stroke-dashoffset":{f:_,i:y},"stroke-dasharray":ft,opacity:lt,transform:function(n,r,e,i){if(!(n=function(n,r){if(!n||"object"!==t(n))return null;var e=!1;for(var i in n)n.hasOwnProperty(i)&&(n[i]&&n[i].length?(n[i].forEach((function(t){t.e&&(t.e=r(t.e))})),e=!0):delete n[i]);return e?n:null}(n,i)))return null;var u=function(t,i,u){var o=arguments.length>3&&void 0!==arguments[3]?arguments[3]:null;return n[t]?e(i,n[t],u):r&&r[t]?r[t]:o};return r&&r.a&&n.o?function(t){var r=e(t,n.o,nt);return it.recomposeSelf(r,u("r",t,y,0)+r.a,u("k",t,g),u("s",t,g),u("t",t,g)).toString()}:function(t){return it.recomposeSelf(u("o",t,tt,null),u("r",t,y,0),u("k",t,g),u("s",t,g),u("t",t,g)).toString()}},"#filter":function(t,n,r,e,i,u,o,a){if(!n.items||!t||!t.length)return null;var l=function(t,n){var r=(t=t.map((function(t){return t&&yt[t[0]]?(n.getElementById(t[1]),yt[t[0]](n.getElementById(t[1]),t[1],n)):null}))).length;return function(n){for(var e=0;e<r;e++)t[e]&&t[e](n[e].value)}}(n.items,a);return l?(t=function(t,n){return t.map((function(t){return t.e=n(t.e),t}))}(t,e),function(n){l(r(n,t,ht))}):null},"#line":ot,points:{f:M,i:A},d:ut,r:at,"#size":B,"#radius":F,_:function(t,n){if(Array.isArray(t))for(var r=0;r<t.length;r++)this[t[r]]=n;else this[t]=n}},pt=function(){function t(r){n(this,t),this.list=r,this.length=r.length}return e(t,[{key:"setAttribute",value:function(t,n){for(var r=this.list,e=0;e<this.length;e++)r[e].setAttribute(t,n)}},{key:"removeAttribute",value:function(t){for(var n=this.list,r=0;r<this.length;r++)n[r].removeAttribute(t)}},{key:"style",value:function(t,n){for(var r=this.list,e=0;e<this.length;e++)r[e].style[t]=n}}]),t}(),bt=/-./g,wt=function(t,n){return n.toUpperCase()};function At(t){return"function"==typeof t?t:h}function xt(t){return t?"function"==typeof t?t:Array.isArray(t)?function(t){var n=arguments.length>1&&void 0!==arguments[1]?arguments[1]:u;if(!Array.isArray(t))return n;switch(t.length){case 1:return s(t[0])||n;case 2:return s(t[0],t[1])||n;case 4:return a(t[0],t[1],t[2],t[3])||n}return n}(t,null):function(t,n){var r=arguments.length>2&&void 0!==arguments[2]?arguments[2]:u;switch(t){case"linear":return u;case"steps":return s(n.steps||1,n.jump||0)||r;case"bezier":case"cubic-bezier":return a(n.x1||0,n.y1||0,n.x2||0,n.y2||0)||r}return r}(t.type,t.value,null):null}function kt(t,n,r){var e=arguments.length>3&&void 0!==arguments[3]&&arguments[3],i=n.length-1;if(t<=n[0].t)return e?[0,0,n[0].v]:n[0].v;if(t>=n[i].t)return e?[i,1,n[i].v]:n[i].v;var u,o=n[0],a=null;for(u=1;u<=i;u++){if(!(t>n[u].t)){a=n[u];break}o=n[u]}return null==a?e?[i,1,n[i].v]:n[i].v:o.t===a.t?e?[u,1,a.v]:a.v:(t=(t-o.t)/(a.t-o.t),o.e&&(t=o.e(t)),e?[u,t,r(t,o.v,a.v)]:r(t,o.v,a.v))}function St(t,n){var r=arguments.length>2&&void 0!==arguments[2]?arguments[2]:null;return t&&t.length?"function"!=typeof n?null:("function"!=typeof r&&(r=null),function(e){var i=kt(e,t,n);return null!=i&&r&&(i=r(i)),i}):null}function _t(t,n){return t.t-n.t}function Mt(n,r,e,i,u){var o,a="@"===e[0],l="#"===e[0],f=mt[e],s=h;switch(a?(o=e.substr(1),e=o.replace(bt,wt)):l&&(e=e.substr(1)),t(f)){case"function":if(s=f(i,u,kt,xt,e,a,r,n),l)return s;break;case"string":s=St(i,At(f));break;case"object":if((s=St(i,At(f.i),f.f))&&"function"==typeof f.u)return f.u(r,s,e,a,n)}return s?function(t,n,r){var e=arguments.length>3&&void 0!==arguments[3]&&arguments[3];if(e)return t instanceof pt?function(e){return t.style(n,r(e))}:function(e){return t.style[n]=r(e)};if(Array.isArray(n)){var i=n.length;return function(e){var u=r(e);if(null==u)for(var o=0;o<i;o++)t[o].removeAttribute(n);else for(var a=0;a<i;a++)t[a].setAttribute(n,u)}}return function(e){var i=r(e);null==i?t.removeAttribute(n):t.setAttribute(n,i)}}(r,e,s,a):null}function It(n,r,e,i){if(!i||"object"!==t(i))return null;var u=null,o=null;return Array.isArray(i)?o=function(t){if(!t||!t.length)return null;for(var n=0;n<t.length;n++)t[n].e&&(t[n].e=xt(t[n].e));return t.sort(_t)}(i):(o=i.keys,u=i.data||null),o?Mt(n,r,e,o,u):null}function Et(t,n,r){if(!r)return null;var e=[];for(var i in r)if(r.hasOwnProperty(i)){var u=It(t,n,i,r[i]);u&&e.push(u)}return e.length?e:null}function Ft(t,n){if(!n.duration||n.duration<0)return null;var r=function(t,n){if(!n)return null;var r=[];if(Array.isArray(n))for(var e=n.length,i=0;i<e;i++){var u=n[i];if(2===u.length){var o=null;if("string"==typeof u[0])o=t.getElementById(u[0]);else if(Array.isArray(u[0])){o=[];for(var a=0;a<u[0].length;a++)if("string"==typeof u[0][a]){var l=t.getElementById(u[0][a]);l&&o.push(l)}o=o.length?1===o.length?o[0]:new pt(o):null}if(o){var f=Et(t,o,u[1]);f&&(r=r.concat(f))}}}else for(var s in n)if(n.hasOwnProperty(s)){var c=t.getElementById(s);if(c){var v=Et(t,c,n[s]);v&&(r=r.concat(v))}}return r.length?r:null}(t,n.elements);return r?function(t,n){var r=arguments.length>2&&void 0!==arguments[2]?arguments[2]:1/0,e=arguments.length>3&&void 0!==arguments[3]?arguments[3]:1,i=arguments.length>4&&void 0!==arguments[4]&&arguments[4],u=arguments.length>5&&void 0!==arguments[5]?arguments[5]:1,o=t.length,a=e>0?n:0;i&&r%2==0&&(a=n-a);var l=null;return function(f,s){var c=f%n,v=1+(f-c)/n;s*=e,i&&v%2==0&&(s=-s);var h=!1;if(v>r)c=a,h=!0,-1===u&&(c=e>0?0:n);else if(s<0&&(c=n-c),c===l)return!1;l=c;for(var y=0;y<o;y++)t[y](c);return h}}(r,n.duration,n.iterations||1/0,n.direction||1,!!n.alternate,n.fill||1):null}var Bt=function(){function t(r){var e=arguments.length>1&&void 0!==arguments[1]?arguments[1]:{};n(this,t),this._id=0,this._running=!1,this._animations=r,this.direction=e.direction||1,this.speed=e.speed||1,this.fps=e.fps||100,this.offset=e.offset||0}return e(t,[{key:"_start",value:function(){var t=this,n=arguments.length>0&&void 0!==arguments[0]?arguments[0]:0,r=-1/0,e=null,i={},u=function u(o){t._running=!0,null==e&&(e=o);var a=Math.round((o-e+n)*t.speed),l=t.fps?1e3/t.fps:0;if(a>r+l){t.offset=a,r=a;for(var f=t._animations,s=f.length,c=0,v=0;v<s;v++)i[v]?c++:(i[v]=f[v](a,t.direction),i[v]&&c++);if(c===s)return void t._stop()}t._id=window.requestAnimationFrame(u)};this._id=window.requestAnimationFrame(u)}},{key:"_stop",value:function(){this._id&&window.cancelAnimationFrame(this._id),this._running=!1}},{key:"play",value:function(){this._running||this._start(this.offset)}},{key:"stop",value:function(){this._stop(),this.offset=0;var t=this.direction,n=this._animations;requestAnimationFrame((function(){for(var r=0;r<n.length;r++)n[r](0,t)}))}},{key:"restart",value:function(){this._stop(),this.offset=0,this._start()}},{key:"pause",value:function(){this._stop()}},{key:"reverse",value:function(){this.direction=-this.direction}}],[{key:"build",value:function(n){if(!(n=function(t){if(!t||!t.root||!Array.isArray(t.animations))return null;var n=window.document.getElementById(t.root);if(!n)return null;var r=t.animations.map((function(t){return Ft(n,t)})).filter((function(t){return!!t}));return r.length?{element:n,animations:r,options:t.options||void 0}:null}(n)))return null;var r=n.element,e=n.options||{},i=new t(n.animations,n.options);return function(t,n,r){var e=arguments.length>3&&void 0!==arguments[3]?arguments[3]:null;if("click"===r){var i=function r(){n.removeEventListener("click",r),t.play()};return void n.addEventListener("click",i)}if("hover"===r)return n.addEventListener("mouseenter",(function(){return t.play()})),void n.addEventListener("mouseleave","freeze"===e?function(){return t.pause()}:function(){return t.stop()});t.play()}(i,r,e.start,e.hover),i}}]),t}();return function(){for(var t=0,n=["ms","moz","webkit","o"],r=0;r<n.length&&!window.requestAnimationFrame;++r)window.requestAnimationFrame=window[n[r]+"RequestAnimationFrame"],window.cancelAnimationFrame=window[n[r]+"CancelAnimationFrame"]||window[n[r]+"CancelRequestAnimationFrame"];window.requestAnimationFrame||(window.requestAnimationFrame=function(n){var r=Date.now(),e=Math.max(0,16-(r-t)),i=window.setTimeout((function(){n(r+e)}),e);return t=r+e,i},window.cancelAnimationFrame=window.clearTimeout)}(),Bt}));
__SVGATOR_PLAYER__.build({"root":"e41vuxsj5x71","animations":[{"duration":2000,"direction":1,"iterations":1,"fill":1,"alternate":false,"elements":{"e41vuxsj5x76":{"transform":{"data":{"o":{"x":46.6570407,"y":48.105894765,"type":"corner"},"t":{"x":-46.31624953006886,"y":-48.43409529960383}},"keys":{"r":[{"t":0,"v":0.5137575682238267},{"t":1000,"v":12.42568733492614},{"t":2000,"v":0.20793860695731997}]}}},"e41vuxsj5x722":{"transform":{"data":{"o":{"x":159.92516005,"y":30.82931524,"type":"corner"},"t":{"x":-159.92516005,"y":-30.82931524}},"keys":{"r":[{"t":0,"v":0},{"t":1000,"v":-10.39205020153641},{"t":2000,"v":-0.44780449555183327}]}}},"e41vuxsj5x726":{"transform":{"data":{"o":{"x":185.90660520499995,"y":69.05332487500002,"type":"corner"},"t":{"x":-190.32691327,"y":-69.068832885}},"keys":{"r":[{"t":0,"v":0.7593364391747803},{"t":1000,"v":1.6478183434047402},{"t":2000,"v":0.15666969308558581}]}}},"e41vuxsj5x727":{"transform":{"data":{"o":{"x":129.44819549,"y":67.92946584,"type":"corner"},"t":{"x":-129.44819549,"y":-67.92946584}},"keys":{"r":[{"t":500,"v":0},{"t":1500,"v":12.820755068469964},{"t":2000,"v":-0.44448101934561196}]}}},"e41vuxsj5x732":{"transform":{"data":{"o":{"x":45.102838115,"y":45.01037656,"type":"corner"},"t":{"x":-45.102838115,"y":-45.01037656}},"keys":{"r":[{"t":0,"v":0},{"t":1000,"v":3.6213666723706703},{"t":2000,"v":0.24045205340206438}]}}}}}],"options":{"start":"hover","hover":"restart"}})]]></script></svg>