<?xml version="1.0" encoding="utf-8"?>
<svg id="evzu0vu3t2g81" xmlns="http://www.w3.org/2000/svg" xmlns:xlink="http://www.w3.org/1999/xlink" viewBox="0 0 147 151" shape-rendering="geometricPrecision" text-rendering="geometricPrecision"><rect id="evzu0vu3t2g82" width="38.200000" height="80.633300" rx="4" ry="0" transform="matrix(1 0 0 1 2.96441213000000 52.61464758000018)" fill="rgb(211,217,236)" stroke="none" stroke-width="1"/><rect id="evzu0vu3t2g83" width="38.200000" height="105.567000" rx="4" ry="0" transform="matrix(1 0 0 1 54.10740000000000 28.11330000000000)" fill="rgb(167,179,216)" stroke="none" stroke-width="1"/><rect id="evzu0vu3t2g84" width="38.200000" height="133.683000" rx="4" ry="0" transform="matrix(1 0 0 1 108.21500000000000 0)" fill="rgb(0,42,149)" stroke="none" stroke-width="1"/><path id="evzu0vu3t2g85" d="M47.227100,69.262200C47.020500,69.836100,47.204200,70.478900,47.296000,71.098800C47.456700,72.223700,47.273000,73.417500,46.790900,74.450600C46.790900,74.473500,46.790900,74.473500,46.768000,74.496500C46.102200,73.899600,45.436400,73.279800,44.908400,72.568100C44.334400,71.787500,43.898300,70.892200,43.806400,69.927900C43.737500,69.009600,43.990100,68.114300,44.242600,67.218900C44.678800,65.772600,45.138000,64.303300,45.941500,63.017700C47.502600,60.584200,50.303400,58.977200,53.173100,58.885300C55.951000,58.793500,58.751800,60.125000,60.450700,62.329000L60.519600,62.283000C62.677600,63.293200,64.192800,65.497100,64.376400,67.861800C64.537200,70.042700,63.550000,72.246700,61.851100,73.601200L61.851100,73.578200L61.736300,73.555200C61.208300,73.302700,60.932800,72.705800,60.772100,72.131900C60.611400,71.557900,60.542500,70.938100,60.221100,70.456000C59.991500,70.111600,59.670100,69.836100,59.394600,69.514700C58.545200,68.527500,58.361600,67.173000,58.246800,65.841500L58.177900,65.841500C55.652600,68.458700,51.887500,69.836100,48.260200,69.491700C49.178500,68.688200,49.913100,67.724000,50.487100,66.668000L50.165700,66.507300C49.591700,67.769900,47.663300,67.976500,47.227100,69.262200Z" fill="rgb(5,0,101)" stroke="none" stroke-width="1"/><path id="evzu0vu3t2g86" d="M46.996100,76.516100C47.064900,77.227800,47.133800,77.962400,47.294500,78.651100L47.156800,78.674100C46.468000,78.536300,45.848200,78.123100,45.457900,77.549200C45.067600,76.975200,44.906900,76.240600,45.044700,75.551900C45.113500,75.138600,45.320100,74.702400,45.664500,74.472800C45.985900,74.243300,46.491000,74.220300,46.766500,74.495800C46.789400,74.495800,46.789400,74.518800,46.812400,74.518800C46.881300,75.207500,46.927200,75.850300,46.996100,76.516100Z" fill="rgb(246,187,150)" stroke="none" stroke-width="1"/><path id="evzu0vu3t2g87" d="M33.589600,144.931000C31.546400,144.082000,29.595000,143.140000,27.712500,142.038000C26.564600,141.373000,25.416700,140.661000,24.360700,139.857000C23.327600,139.926000,22.317400,140.202000,21.468000,140.822000C21.376200,140.891000,21.284400,140.959000,21.192500,141.051000C20.228300,141.878000,19.631400,143.071000,19.355900,144.311000C19.034500,145.666000,19.080400,147.066000,19.149300,148.467000C19.195200,149.040000,19.241100,149.637000,19.585500,150.097000C20.113500,150.785000,21.077700,150.877000,21.927200,150.900000C25.692200,151.038000,29.457300,151.038000,33.199400,150.877000C33.337100,150.051000,33.428900,149.224000,33.497800,148.375000C33.612600,147.250000,33.635600,146.102000,33.589600,144.931000Z" fill="rgb(73,73,73)" stroke="none" stroke-width="1"/><path id="evzu0vu3t2g88" d="M69.380900,141.442000C69.357900,144.449000,69.335000,147.457000,69.312000,150.464000L69.312000,150.671000C69.266100,150.671000,69.197200,150.671000,69.151300,150.671000C63.917000,150.602000,58.476000,150.373000,53.058000,149.707000C47.479300,149.041000,41.946500,147.916000,36.781100,146.125000C35.702100,145.758000,34.646000,145.368000,33.612900,144.932000C31.569700,144.082000,29.618300,143.141000,27.735800,142.039000C26.587900,141.373000,25.440000,140.661000,24.384000,139.858000C23.534500,139.238000,22.754000,138.549000,22.042300,137.769000C20.412300,136.047000,19.218500,133.797000,19.103700,131.432000C18.988900,129.068000,20.113800,126.565000,22.180000,125.395000C23.993700,124.385000,26.105800,124.476000,28.149000,125.004000C29.021400,125.211000,29.870800,125.486000,30.674300,125.808000C32.740500,126.565000,34.783800,127.415000,36.804000,128.310000C41.051200,130.216000,45.206500,132.328000,49.453700,134.233000C50.624500,134.761000,51.818300,135.289000,53.035100,135.794000C58.177600,137.952000,63.710400,139.927000,69.357900,141.144000C69.380900,141.235000,69.380900,141.350000,69.380900,141.442000Z" fill="rgb(86,80,78)" stroke="none" stroke-width="1"/><path id="evzu0vu3t2g89" d="M81.732500,139.857000C82.765600,139.926000,83.775800,140.201000,84.625200,140.821000C85.750100,141.648000,86.438800,142.956000,86.737300,144.311000C87.058700,145.665000,87.012800,147.066000,86.943900,148.466000C86.898000,149.040000,86.852100,149.637000,86.507700,150.096000C85.979700,150.785000,85.015500,150.877000,84.166000,150.900000C80.401000,151.037000,76.635900,151.037000,72.893800,150.877000C72.411700,147.869000,72.365800,144.793000,72.733100,141.786000C73.307100,141.717000,73.881000,141.602000,74.455000,141.464000C76.153800,141.005000,77.806800,140.316000,79.551500,139.995000C80.240300,139.857000,80.997900,139.811000,81.732500,139.857000Z" fill="rgb(73,73,73)" stroke="none" stroke-width="1"/><path id="evzu0vu3t2g810" d="M69.289600,150.668000L69.289600,150.462000C69.312600,147.454000,69.335500,144.447000,69.358500,141.439000C70.414500,141.853000,71.562400,141.922000,72.710300,141.784000C72.343000,144.791000,72.388900,147.868000,72.871000,150.875000C71.631300,150.829000,70.368600,150.760000,69.128900,150.668000L69.128900,150.645000C69.197800,150.668000,69.243700,150.668000,69.289600,150.668000Z" fill="rgb(246,187,150)" stroke="none" stroke-width="1"/><path id="evzu0vu3t2g811" d="M46.791300,74.518300L46.791300,74.541900C46.791300,74.518300,46.767700,74.518300,46.744100,74.518300C46.767700,74.518300,46.767700,74.494700,46.791300,74.518300C46.791300,74.494700,46.791300,74.518300,46.791300,74.518300Z" fill="rgb(226,6,19)" stroke="none" stroke-width="1"/><path id="evzu0vu3t2g812" d="M62.723200,74.036700C63.090500,74.082600,63.411900,74.404000,63.526700,74.748400C63.664500,75.115700,63.664500,75.506000,63.595600,75.873300C63.503800,76.516100,63.274200,77.158900,62.838000,77.664000C62.447700,78.146100,61.873800,78.490500,61.253900,78.559300C61.391700,77.893600,61.483500,77.181900,61.552400,76.516100C61.621200,75.873300,61.690100,75.230500,61.736000,74.587700L61.873800,74.610600C61.942600,74.220400,62.355900,73.967800,62.723200,74.036700Z" fill="rgb(246,187,150)" stroke="none" stroke-width="1"/><path id="evzu0vu3t2g813" d="M50.142800,83.059000C49.201600,82.301400,48.535800,81.429000,48.191400,80.924000C47.732300,80.235200,47.456800,79.454700,47.296100,78.651200C47.135400,77.939500,47.066500,77.227800,46.997600,76.516100C46.928800,75.873300,46.859900,75.207500,46.791000,74.564700C46.791000,74.541700,46.791000,74.541700,46.791000,74.541700C46.791000,74.518800,46.791000,74.495800,46.791000,74.472900C47.273100,73.439800,47.456800,72.246000,47.296100,71.121100C47.204300,70.501200,47.020600,69.881300,47.227200,69.284400C47.663400,67.998800,49.568900,67.792200,50.188700,66.552500L50.510200,66.713200C49.959200,67.769200,49.201600,68.756400,48.283300,69.537000C51.910600,69.881300,55.675600,68.503900,58.201000,65.886700L58.269800,65.886700C58.384600,67.195300,58.568300,68.572800,59.417700,69.559900C59.693200,69.881300,60.014600,70.133900,60.244200,70.501200C60.565600,70.983300,60.634500,71.603200,60.795200,72.177100C60.955900,72.751000,61.208400,73.347900,61.759400,73.600500L61.874200,73.623400C61.874200,73.623400,61.874200,73.623400,61.874200,73.646400C61.851200,73.967800,61.805300,74.289200,61.782300,74.633600C61.713500,75.276400,61.667600,75.919200,61.598700,76.562000C61.529800,77.250700,61.460900,77.939500,61.300200,78.605200C61.139500,79.454700,60.864000,80.258200,60.381900,80.969900C59.968700,81.566800,59.165200,82.645800,57.948400,83.495200C56.984200,84.138000,55.790400,84.643100,54.321100,84.643100C52.553400,84.597200,51.175900,83.885500,50.142800,83.059000Z" fill="rgb(254,180,148)" stroke="none" stroke-width="1"/><path id="evzu0vu3t2g814" d="M39.146400,114.970000L68.899400,114.970000L70.942700,114.970000C71.378900,114.970000,71.746200,115.406000,71.746200,115.934000L71.654400,119.378000L71.424800,127.344000C66.420000,129.456000,61.576000,131.959000,56.617100,134.209000C55.446300,134.737000,54.252500,135.265000,53.035700,135.770000C51.819000,135.265000,50.625200,134.737000,49.454300,134.209000C45.207200,132.303000,41.051800,130.191000,36.804700,128.286000L36.804700,119.194000L36.804700,115.889000C36.804700,115.361000,37.149100,114.947000,37.585200,114.947000L39.146400,114.947000L39.146400,114.970000Z" fill="rgb(226,210,202)" stroke="none" stroke-width="1"/><path id="evzu0vu3t2g815" d="M81.617800,106.179000C80.837300,104.526000,80.010800,102.827000,79.161400,101.174000C77.232900,102.069000,75.235600,103.194000,73.399000,104.411000C72.388900,105.077000,71.424600,105.788000,70.529300,106.523000C71.263900,108.153000,72.274100,110.173000,73.215300,112.102000C73.904100,113.502000,74.569800,114.857000,75.051900,115.981000L71.654200,119.425000L71.424600,127.391000C72.733200,126.840000,74.041800,126.312000,75.373400,125.807000C76.934500,125.233000,78.610400,124.728000,80.263300,124.659000C80.929100,124.063000,81.571900,123.443000,82.214700,122.823000C84.143200,120.940000,86.071600,118.645000,86.002700,115.936000C85.910900,112.515000,81.617800,106.179000,81.617800,106.179000Z" fill="rgb(254,180,148)" stroke="none" stroke-width="1"/><path id="evzu0vu3t2g816" d="M50.143100,83.060500C51.153200,83.887000,52.530700,84.575700,54.275500,84.575700C55.744800,84.575700,56.938500,84.093600,57.902800,83.427900C57.994600,84.277300,58.086400,85.103800,58.201200,85.953200C57.260000,87.835700,56.066200,89.213200,53.977000,89.144300C51.933800,89.052500,50.854800,87.766900,50.074200,85.907300C50.074200,85.838400,50.074200,85.792500,50.074200,85.723600C50.097200,84.851200,50.120100,83.955900,50.143100,83.060500Z" fill="rgb(254,180,148)" stroke="none" stroke-width="1"/><path id="evzu0vu3t2g817" d="M34.371500,113.502000C34.371500,113.479000,34.394500,113.456000,34.394500,113.456000C35.634200,110.655000,36.552500,109.530000,37.769300,106.706000C36.851000,105.949000,35.840800,105.214000,34.807700,104.502000C32.925200,103.217000,30.882000,102.069000,28.884700,101.150000C28.035200,102.803000,27.231700,104.502000,26.451200,106.155000C26.451200,106.155000,22.158100,112.491000,22.066200,115.889000C21.997400,118.575000,23.925800,120.871000,25.854300,122.776000C26.611900,123.534000,27.392400,124.269000,28.195900,124.980000C29.068300,125.187000,29.917800,125.463000,30.721300,125.784000C32.787500,126.542000,34.830700,127.391000,36.851000,128.286000L36.851000,119.195000L33.866500,115.430000C33.820500,114.764000,34.096000,114.121000,34.371500,113.502000Z" fill="rgb(254,180,148)" stroke="none" stroke-width="1"/><path id="evzu0vu3t2g818" d="M71.538600,90.038700C67.957200,87.146000,62.768700,86.595000,58.223100,85.952200C57.281900,87.834800,56.088100,89.212200,53.998900,89.143300C51.955700,89.051500,50.876700,87.765900,50.096100,85.906300C50.096100,85.837400,50.096100,85.791500,50.096100,85.722700C45.573500,86.365500,40.109600,87.169000,36.551100,90.038700C33.773300,92.265600,31.225000,96.558700,28.906200,101.150000C30.903600,102.068000,32.923800,103.216000,34.829300,104.502000C35.862400,105.214000,36.872500,105.948000,37.790800,106.706000C38.158200,107.027000,38.548500,107.326000,38.892800,107.647000C38.984600,110.081000,39.076500,112.537000,39.168300,114.971000L68.921400,114.971000C69.013200,112.537000,69.105000,110.081000,69.196900,107.647000C69.633100,107.257000,70.069300,106.890000,70.551400,106.499000C71.446700,105.788000,72.410900,105.076000,73.421100,104.387000C75.257700,103.170000,77.255000,102.046000,79.183400,101.150000C76.841800,96.581600,74.293500,92.265600,71.538600,90.038700Z" fill="rgb(0,42,149)" stroke="none" stroke-width="1"/><path id="evzu0vu3t2g819" d="M36.757600,146.123000C35.678600,145.756000,34.622600,145.366000,33.589500,144.930000C33.635400,146.078000,33.589500,147.225000,33.497700,148.373000C33.428800,149.200000,33.337000,150.049000,33.199200,150.876000C34.393000,150.830000,35.586800,150.761000,36.780600,150.692000L36.780600,149.498000C36.780600,148.373000,36.757600,147.248000,36.757600,146.123000Z" fill="rgb(246,187,150)" stroke="none" stroke-width="1"/><path id="evzu0vu3t2g820" d="M36.757800,146.123000C36.757800,147.248000,36.780800,148.373000,36.780800,149.498000L36.780800,150.692000C36.849600,150.692000,36.895600,150.692000,36.964400,150.692000L36.964400,150.669000C38.433700,150.646000,39.926000,150.623000,41.441200,150.554000C45.275100,150.439000,49.177900,150.164000,53.057700,149.704000C47.479000,149.039000,41.946200,147.914000,36.757800,146.123000Z" fill="rgb(86,80,78)" stroke="none" stroke-width="1"/><path id="evzu0vu3t2g821" d="M83.890200,125.393000C82.788200,124.773000,81.548500,124.567000,80.262900,124.636000C78.609900,124.705000,76.934000,125.210000,75.372900,125.784000C74.041400,126.266000,72.732800,126.794000,71.424200,127.368000C66.419400,129.480000,61.575400,131.982000,56.616500,134.232000C55.445700,134.760000,54.251900,135.288000,53.035200,135.793000C54.802900,136.528000,56.593600,137.239000,58.430200,137.905000C61.965700,139.191000,65.638900,140.339000,69.358000,141.142000C69.358000,141.257000,69.358000,141.349000,69.358000,141.464000C70.414100,141.877000,71.562000,141.946000,72.709800,141.808000C73.283800,141.739000,73.857700,141.624000,74.431700,141.487000C76.130500,141.027000,77.783500,140.339000,79.528300,140.017000C80.239900,139.880000,80.997500,139.811000,81.732200,139.880000C82.581600,139.260000,83.362200,138.571000,84.073900,137.790000C84.510100,137.308000,84.923300,136.780000,85.290600,136.229000C86.254800,134.783000,86.897700,133.153000,86.989500,131.431000C87.081300,129.044000,85.979300,126.564000,83.890200,125.393000Z" fill="rgb(86,80,78)" stroke="none" stroke-width="1"/><path id="evzu0vu3t2g822" d="M49.959000,124.613000C49.959000,126.312000,51.336400,127.712000,53.058300,127.712000C54.757100,127.712000,56.157500,126.335000,56.157500,124.613000C56.157500,122.914000,54.780100,121.514000,53.058300,121.514000C51.336400,121.514000,49.959000,122.914000,49.959000,124.613000Z" fill="rgb(255,255,255)" stroke="none" stroke-width="1"/><script><![CDATA[!function(t,n){"object"==typeof exports&&"undefined"!=typeof module?module.exports=n():"function"==typeof define&&define.amd?define(n):(t=t||self).__SVGATOR_PLAYER__=n()}(this,(function(){"use strict";function t(n){return(t="function"==typeof Symbol&&"symbol"==typeof Symbol.iterator?function(t){return typeof t}:function(t){return t&&"function"==typeof Symbol&&t.constructor===Symbol&&t!==Symbol.prototype?"symbol":typeof t})(n)}function n(t,n){if(!(t instanceof n))throw new TypeError("Cannot call a class as a function")}function r(t,n){for(var r=0;r<n.length;r++){var e=n[r];e.enumerable=e.enumerable||!1,e.configurable=!0,"value"in e&&(e.writable=!0),Object.defineProperty(t,e.key,e)}}function e(t,n,e){return n&&r(t.prototype,n),e&&r(t,e),t}var i=Math.abs;function u(t){return t}function o(t,n,r){var e=1-r;return 3*r*e*(t*e+n*r)+r*r*r}function a(){var t=arguments.length>0&&void 0!==arguments[0]?arguments[0]:0,n=arguments.length>1&&void 0!==arguments[1]?arguments[1]:0,r=arguments.length>2&&void 0!==arguments[2]?arguments[2]:1,e=arguments.length>3&&void 0!==arguments[3]?arguments[3]:1;return t<0||t>1||r<0||r>1?null:i(t-n)<=1e-5&&i(r-e)<=1e-5?u:function(u){if(u<=0)return t>0?u*n/t:0===n&&r>0?u*e/r:0;if(u>=1)return r<1?1+(u-1)*(e-1)/(r-1):1===r&&t<1?1+(u-1)*(n-1)/(t-1):1;for(var a,l=0,f=1;l<f;){var s=o(t,r,a=(l+f)/2);if(i(u-s)<1e-5)break;s<u?l=a:f=a}return o(n,e,a)}}function l(){return 1}function f(t){return 1===t?1:0}function s(){var t=arguments.length>0&&void 0!==arguments[0]?arguments[0]:1,n=arguments.length>1&&void 0!==arguments[1]?arguments[1]:0;if(1===t){if(0===n)return f;if(1===n)return l}var r=1/t;return function(t){return t>=1?1:(t+=n*r)-t%r}}function c(t){var n=arguments.length>1&&void 0!==arguments[1]?arguments[1]:2;if(Number.isInteger(t))return t;var r=Math.pow(10,n);return Math.round(t*r)/r}var v=Math.PI/180;function h(t,n,r){return t>=.5?r:n}function y(t,n,r){return 0===t||n===r?n:t*(r-n)+n}function d(t,n,r){var e=y(t,n,r);return e<=0?0:e}function g(t,n,r){return 0===t?n:1===t?r:{x:y(t,n.x,r.x),y:y(t,n.y,r.y)}}function m(t,n,r){return 0===t?n:1===t?r:{x:d(t,n.x,r.x),y:d(t,n.y,r.y)}}function p(t,n,r){var e=function(t,n,r){return Math.round(y(t,n,r))}(t,n,r);return e<=0?0:e>=255?255:e}function b(t,n,r){return 0===t?n:1===t?r:{r:p(t,n.r,r.r),g:p(t,n.g,r.g),b:p(t,n.b,r.b),a:y(t,null==n.a?1:n.a,null==r.a?1:r.a)}}function w(t,n,r){if(0===t)return n;if(1===t)return r;var e=n.length;if(e!==r.length)return h(t,n,r);for(var i=[],u=0;u<e;u++)i.push(b(t,n[u],r[u]));return i}function A(t,n,r){var e=n.length;if(e!==r.length)return h(t,n,r);for(var i=new Array(e),u=0;u<e;u++)i[u]=y(t,n[u],r[u]);return i}function x(t,n){for(var r=[],e=0;e<t;e++)r.push(n);return r}function k(t,n){if(--n<=0)return t;var r=(t=Object.assign([],t)).length;do{for(var e=0;e<r;e++)t.push(t[e])}while(--n>0);return t}var S=/\.0+$/g;function _(t){return Number.isInteger(t)?t+"":t.toFixed(6).replace(S,"")}function M(t){var n=arguments.length>1&&void 0!==arguments[1]?arguments[1]:" ";return t&&t.length?t.map(_).join(n):""}function I(t){return _(t.x)+","+_(t.y)}function E(t){return t?null==t.a||t.a>=1?"rgb("+t.r+","+t.g+","+t.b+")":"rgba("+t.r+","+t.g+","+t.b+","+t.a+")":"transparent"}var F={f:null,i:m,u:function(t,n){return function(r){var e=n(r);t.setAttribute("rx",_(e.x)),t.setAttribute("ry",_(e.y))}}},B={f:null,i:function(t,n,r){return 0===t?n:1===t?r:{width:d(t,n.width,r.width),height:d(t,n.height,r.height)}},u:function(t,n){return function(r){var e=n(r);t.setAttribute("width",_(e.width)),t.setAttribute("height",_(e.height))}}},j=Math.sin,q=Math.cos,P=Math.acos,O=Math.asin,z=Math.tan,L=Math.atan2,C=Math.PI/180,R=180/Math.PI,T=Math.sqrt,V=function(){function t(){var r=arguments.length>0&&void 0!==arguments[0]?arguments[0]:1,e=arguments.length>1&&void 0!==arguments[1]?arguments[1]:0,i=arguments.length>2&&void 0!==arguments[2]?arguments[2]:0,u=arguments.length>3&&void 0!==arguments[3]?arguments[3]:1,o=arguments.length>4&&void 0!==arguments[4]?arguments[4]:0,a=arguments.length>5&&void 0!==arguments[5]?arguments[5]:0;n(this,t),this.m=[r,e,i,u,o,a],this.i=null,this.w=null,this.s=null}return e(t,[{key:"point",value:function(t,n){var r=this.m;return{x:r[0]*t+r[2]*n+r[4],y:r[1]*t+r[3]*n+r[5]}}},{key:"translateSelf",value:function(){var t=arguments.length>0&&void 0!==arguments[0]?arguments[0]:0,n=arguments.length>1&&void 0!==arguments[1]?arguments[1]:0;if(!t&&!n)return this;var r=this.m;return r[4]+=r[0]*t+r[2]*n,r[5]+=r[1]*t+r[3]*n,this.w=this.s=this.i=null,this}},{key:"rotateSelf",value:function(){var t=arguments.length>0&&void 0!==arguments[0]?arguments[0]:0;if(t%=360){var n=j(t*=C),r=q(t),e=this.m,i=e[0],u=e[1];e[0]=i*r+e[2]*n,e[1]=u*r+e[3]*n,e[2]=e[2]*r-i*n,e[3]=e[3]*r-u*n,this.w=this.s=this.i=null}return this}},{key:"scaleSelf",value:function(){var t=arguments.length>0&&void 0!==arguments[0]?arguments[0]:1,n=arguments.length>1&&void 0!==arguments[1]?arguments[1]:1;if(1!==t||1!==n){var r=this.m;r[0]*=t,r[1]*=t,r[2]*=n,r[3]*=n,this.w=this.s=this.i=null}return this}},{key:"skewSelf",value:function(t,n){if(n%=360,(t%=360)||n){var r=this.m,e=r[0],i=r[1],u=r[2],o=r[3];t&&(t=z(t*C),r[2]+=e*t,r[3]+=i*t),n&&(n=z(n*C),r[0]+=u*n,r[1]+=o*n),this.w=this.s=this.i=null}return this}},{key:"resetSelf",value:function(){var t=arguments.length>0&&void 0!==arguments[0]?arguments[0]:1,n=arguments.length>1&&void 0!==arguments[1]?arguments[1]:0,r=arguments.length>2&&void 0!==arguments[2]?arguments[2]:0,e=arguments.length>3&&void 0!==arguments[3]?arguments[3]:1,i=arguments.length>4&&void 0!==arguments[4]?arguments[4]:0,u=arguments.length>5&&void 0!==arguments[5]?arguments[5]:0,o=this.m;return o[0]=t,o[1]=n,o[2]=r,o[3]=e,o[4]=i,o[5]=u,this.w=this.s=this.i=null,this}},{key:"recomposeSelf",value:function(){var t=arguments.length>0&&void 0!==arguments[0]?arguments[0]:null,n=arguments.length>1&&void 0!==arguments[1]?arguments[1]:null,r=arguments.length>2&&void 0!==arguments[2]?arguments[2]:null,e=arguments.length>3&&void 0!==arguments[3]?arguments[3]:null,i=arguments.length>4&&void 0!==arguments[4]?arguments[4]:null;return this.isIdentity||this.resetSelf(),t&&(t.x||t.y)&&this.translateSelf(t.x,t.y),n&&this.rotateSelf(n),r&&(r.x&&this.skewSelf(r.x,0),r.y&&this.skewSelf(0,r.y)),!e||1===e.x&&1===e.y||this.scaleSelf(e.x,e.y),i&&(i.x||i.y)&&this.translateSelf(i.x,i.y),this}},{key:"decompose",value:function(){var t=arguments.length>0&&void 0!==arguments[0]?arguments[0]:0,n=arguments.length>1&&void 0!==arguments[1]?arguments[1]:0,r=this.m,e=r[0]*r[0]+r[1]*r[1],i=[[r[0],r[1]],[r[2],r[3]]],u=T(e);if(0===u)return{origin:{x:r[4],y:r[5]},translate:{x:t,y:n},scale:{x:0,y:0},skew:{x:0,y:0},rotate:0};i[0][0]/=u,i[0][1]/=u;var o=r[0]*r[3]-r[1]*r[2]<0;o&&(u=-u);var a=i[0][0]*i[1][0]+i[0][1]*i[1][1];i[1][0]-=i[0][0]*a,i[1][1]-=i[0][1]*a;var l=T(i[1][0]*i[1][0]+i[1][1]*i[1][1]);if(0===l)return{origin:{x:r[4],y:r[5]},translate:{x:t,y:n},scale:{x:u,y:0},skew:{x:0,y:0},rotate:0};i[1][0]/=l,i[1][1]/=l,a/=l;var f=0;return i[1][1]<0?(f=P(i[1][1])*R,i[0][1]<0&&(f=360-f)):f=O(i[0][1])*R,o&&(f=-f),a=L(a,T(i[0][0]*i[0][0]+i[0][1]*i[0][1]))*R,{origin:{x:r[4],y:r[5]},translate:{x:t,y:n},scale:{x:u,y:l},skew:{x:a,y:0},rotate:f}}},{key:"toString",value:function(){return null===this.s&&(this.s="matrix("+this.m.map(N).join(" ")+")"),this.s}},{key:"determinant",get:function(){var t=this.m;return t[0]*t[3]-t[1]*t[2]}},{key:"isIdentity",get:function(){if(null===this.i){var t=this.m;this.i=1===t[0]&&0===t[1]&&0===t[2]&&1===t[3]&&0===t[4]&&0===t[5]}return this.i}}]),t}(),D=/\.0+$/;function N(t){return Number.isInteger(t)?t:t.toFixed(14).replace(D,"")}Object.freeze({M:2,L:2,Z:0,H:1,V:1,C:6,Q:4,T:2,S:4,A:7});function G(t,n,r){return t+(n-t)*r}function $(t,n,r){var e=arguments.length>3&&void 0!==arguments[3]&&arguments[3],i={x:G(t.x,n.x,r),y:G(t.y,n.y,r)};return e&&(i.a=H(t,n)),i}function H(t,n){return Math.atan2(n.y-t.y,n.x-t.x)}function Q(t,n,r,e){var i=1-e;return i*i*t+2*i*e*n+e*e*r}function U(t,n,r,e){return 2*(1-e)*(n-t)+2*e*(r-n)}function Y(t,n,r,e){var i=arguments.length>4&&void 0!==arguments[4]&&arguments[4],u={x:Q(t.x,n.x,r.x,e),y:Q(t.y,n.y,r.y,e)};return i&&(u.a=Z(t,n,r,e)),u}function Z(t,n,r,e){return Math.atan2(U(t.y,n.y,r.y,e),U(t.x,n.x,r.x,e))}function J(t,n,r,e,i){var u=i*i;return i*u*(e-t+3*(n-r))+3*u*(t+r-2*n)+3*i*(n-t)+t}function K(t,n,r,e,i){var u=1-i;return 3*(u*u*(n-t)+2*u*i*(r-n)+i*i*(e-r))}function W(t,n,r,e,i){var u=arguments.length>5&&void 0!==arguments[5]&&arguments[5],o={x:J(t.x,n.x,r.x,e.x,i),y:J(t.y,n.y,r.y,e.y,i)};return u&&(o.a=X(t,n,r,e,i)),o}function X(t,n,r,e,i){return Math.atan2(K(t.y,n.y,r.y,e.y,i),K(t.x,n.x,r.x,e.x,i))}function tt(t,n,r){var e=arguments.length>3&&void 0!==arguments[3]&&arguments[3];if(rt(n)){if(et(r))return Y(n,r.start,r,t,e)}else if(rt(r)){if(n.end)return Y(n,n.end,r,t,e)}else{if(n.end)return r.start?W(n,n.end,r.start,r,t,e):Y(n,n.end,r,t,e);if(r.start)return Y(n,r.start,r,t,e)}return $(n,r,t,e)}function nt(t,n,r){var e=tt(t,n,r,!0);return e.a=function(t){var n=arguments.length>1&&void 0!==arguments[1]&&arguments[1];return n?t+Math.PI:t}(e.a)/v,e}function rt(t){return!t.type||"corner"===t.type}function et(t){return null!=t.start&&!rt(t)}var it=new V;var ut={f:function(t){return t?t.join(" "):""},i:function(n,r,e){if(0===n)return r;if(1===n)return e;var i=r.length;if(i!==e.length)return h(n,r,e);for(var u,o=new Array(i),a=0;a<i;a++){if((u=t(r[a]))!==t(e[a]))return h(n,r,e);if("number"===u)o[a]=y(n,r[a],e[a]);else{if(r[a]!==e[a])return h(n,r,e);o[a]=r[a]}}return o}},ot={f:null,i:A,u:function(t,n){return function(r){var e=n(r);t.setAttribute("x1",_(e[0])),t.setAttribute("y1",_(e[1])),t.setAttribute("x2",_(e[2])),t.setAttribute("y2",_(e[3]))}}},at={f:_,i:y},lt={f:_,i:function(t,n,r){var e=y(t,n,r);return e<=0?0:e>=1?1:e}},ft={f:M,i:function(t,n,r){var e,i,u,o=n.length,a=r.length;if(o!==a)if(0===o)n=x(o=a,0);else if(0===a)a=o,r=x(o,0);else{var l=(u=(e=o)*(i=a)/function(t,n){for(var r;n;)r=n,n=t%n,t=r;return t||1}(e,i))<0?-u:u;n=k(n,Math.floor(l/o)),r=k(r,Math.floor(l/a)),o=a=l}for(var f=[],s=0;s<o;s++)f.push(c(d(t,n[s],r[s]),6));return f}};function st(t,n,r,e,i,u,o,a){return n=function(t,n,r){for(var e,i,u,o=t.length-1,a={},l=0;l<=o;l++)(e=t[l]).e&&(e.e=n(e.e)),e.v&&"g"===(i=e.v).t&&i.r&&(u=r.getElementById(i.r))&&(a[i.r]=u.querySelectorAll("stop"));return a}(t,e,a),function(e){var i,u=r(e,t,ct);return u?"c"===u.t?E(u.v):"g"===u.t?(n[u.r]&&function(t,n){for(var r=0,e=t.length;r<e;r++)t[r].setAttribute("stop-color",E(n[r]))}(n[u.r],u.v),(i=u.r)?"url(#"+i+")":"none"):"none":"none"}}function ct(t,n,r){if(0===t)return n;if(1===t)return r;if(n&&r){var e=n.t;if(e===r.t)switch(n.t){case"c":return{t:e,v:b(t,n.v,r.v)};case"g":if(n.r===r.r)return{t:e,v:w(t,n.v,r.v),r:n.r}}}return h(t,n,r)}var vt={blur:m,brightness:d,contrast:d,"drop-shadow":function(t,n,r){return 0===t?n:1===t?r:{blur:m(t,n.blur,r.blur),offset:g(t,n.offset,r.offset),color:b(t,n.color,r.color)}},grayscale:d,"hue-rotate":y,invert:d,opacity:d,saturate:d,sepia:d};function ht(t,n,r){if(0===t)return n;if(1===t)return r;var e=n.length;if(e!==r.length)return h(t,n,r);for(var i,u=[],o=0;o<e;o++){if(n[o].type!==r[o].type)return n;if(!(i=vt[n[o].type]))return h(t,n,r);u.push({type:n.type,value:i(t,n[o].value,r[o].value)})}return u}var yt={blur:function(t){return t?function(n){t.setAttribute("stdDeviation",I(n))}:null},brightness:function(t,n,r){return(t=gt(r,n))?function(n){n=_(n),t.map((function(t){return t.setAttribute("slope",n)}))}:null},contrast:function(t,n,r){return(t=gt(r,n))?function(n){var r=_((1-n)/2);n=_(n),t.map((function(t){t.setAttribute("slope",n),t.setAttribute("intercept",r)}))}:null},"drop-shadow":function(t,n,r){var e=r.getElementById(n+"-blur");if(!e)return null;var i=r.getElementById(n+"-offset");if(!i)return null;var u=r.getElementById(n+"-flood");return u?function(t){e.setAttribute("stdDeviation",I(t.blur)),i.setAttribute("dx",_(t.offset.x)),i.setAttribute("dy",_(t.offset.y)),u.setAttribute("flood-color",E(t.color))}:null},grayscale:function(t){return t?function(n){t.setAttribute("values",M(function(t){return[.2126+.7874*(t=1-t),.7152-.7152*t,.0722-.0722*t,0,0,.2126-.2126*t,.7152+.2848*t,.0722-.0722*t,0,0,.2126-.2126*t,.7152-.7152*t,.0722+.9278*t,0,0,0,0,0,1,0]}(n)))}:null},"hue-rotate":function(t){return t?function(n){return t.setAttribute("values",_(n))}:null},invert:function(t,n,r){return(t=gt(r,n))?function(n){n=_(n)+" "+_(1-n),t.map((function(t){return t.setAttribute("tableValues",n)}))}:null},opacity:function(t,n,r){return(t=r.getElementById(n+"-A"))?function(n){return t.setAttribute("tableValues","0 "+_(n))}:null},saturate:function(t){return t?function(n){return t.setAttribute("values",_(n))}:null},sepia:function(t){return t?function(n){return t.setAttribute("values",M(function(t){return[.393+.607*(t=1-t),.769-.769*t,.189-.189*t,0,0,.349-.349*t,.686+.314*t,.168-.168*t,0,0,.272-.272*t,.534-.534*t,.131+.869*t,0,0,0,0,0,1,0]}(n)))}:null}};var dt=["R","G","B"];function gt(t,n){var r=dt.map((function(r){return t.getElementById(n+"-"+r)||null}));return-1!==r.indexOf(null)?null:r}var mt={fill:st,"fill-opacity":lt,stroke:st,"stroke-opacity":lt,"stroke-width":at,"stroke-dashoffset":{f:_,i:y},"stroke-dasharray":ft,opacity:lt,transform:function(n,r,e,i){if(!(n=function(n,r){if(!n||"object"!==t(n))return null;var e=!1;for(var i in n)n.hasOwnProperty(i)&&(n[i]&&n[i].length?(n[i].forEach((function(t){t.e&&(t.e=r(t.e))})),e=!0):delete n[i]);return e?n:null}(n,i)))return null;var u=function(t,i,u){var o=arguments.length>3&&void 0!==arguments[3]?arguments[3]:null;return n[t]?e(i,n[t],u):r&&r[t]?r[t]:o};return r&&r.a&&n.o?function(t){var r=e(t,n.o,nt);return it.recomposeSelf(r,u("r",t,y,0)+r.a,u("k",t,g),u("s",t,g),u("t",t,g)).toString()}:function(t){return it.recomposeSelf(u("o",t,tt,null),u("r",t,y,0),u("k",t,g),u("s",t,g),u("t",t,g)).toString()}},"#filter":function(t,n,r,e,i,u,o,a){if(!n.items||!t||!t.length)return null;var l=function(t,n){var r=(t=t.map((function(t){return t&&yt[t[0]]?(n.getElementById(t[1]),yt[t[0]](n.getElementById(t[1]),t[1],n)):null}))).length;return function(n){for(var e=0;e<r;e++)t[e]&&t[e](n[e].value)}}(n.items,a);return l?(t=function(t,n){return t.map((function(t){return t.e=n(t.e),t}))}(t,e),function(n){l(r(n,t,ht))}):null},"#line":ot,points:{f:M,i:A},d:ut,r:at,"#size":B,"#radius":F,_:function(t,n){if(Array.isArray(t))for(var r=0;r<t.length;r++)this[t[r]]=n;else this[t]=n}},pt=function(){function t(r){n(this,t),this.list=r,this.length=r.length}return e(t,[{key:"setAttribute",value:function(t,n){for(var r=this.list,e=0;e<this.length;e++)r[e].setAttribute(t,n)}},{key:"removeAttribute",value:function(t){for(var n=this.list,r=0;r<this.length;r++)n[r].removeAttribute(t)}},{key:"style",value:function(t,n){for(var r=this.list,e=0;e<this.length;e++)r[e].style[t]=n}}]),t}(),bt=/-./g,wt=function(t,n){return n.toUpperCase()};function At(t){return"function"==typeof t?t:h}function xt(t){return t?"function"==typeof t?t:Array.isArray(t)?function(t){var n=arguments.length>1&&void 0!==arguments[1]?arguments[1]:u;if(!Array.isArray(t))return n;switch(t.length){case 1:return s(t[0])||n;case 2:return s(t[0],t[1])||n;case 4:return a(t[0],t[1],t[2],t[3])||n}return n}(t,null):function(t,n){var r=arguments.length>2&&void 0!==arguments[2]?arguments[2]:u;switch(t){case"linear":return u;case"steps":return s(n.steps||1,n.jump||0)||r;case"bezier":case"cubic-bezier":return a(n.x1||0,n.y1||0,n.x2||0,n.y2||0)||r}return r}(t.type,t.value,null):null}function kt(t,n,r){var e=arguments.length>3&&void 0!==arguments[3]&&arguments[3],i=n.length-1;if(t<=n[0].t)return e?[0,0,n[0].v]:n[0].v;if(t>=n[i].t)return e?[i,1,n[i].v]:n[i].v;var u,o=n[0],a=null;for(u=1;u<=i;u++){if(!(t>n[u].t)){a=n[u];break}o=n[u]}return null==a?e?[i,1,n[i].v]:n[i].v:o.t===a.t?e?[u,1,a.v]:a.v:(t=(t-o.t)/(a.t-o.t),o.e&&(t=o.e(t)),e?[u,t,r(t,o.v,a.v)]:r(t,o.v,a.v))}function St(t,n){var r=arguments.length>2&&void 0!==arguments[2]?arguments[2]:null;return t&&t.length?"function"!=typeof n?null:("function"!=typeof r&&(r=null),function(e){var i=kt(e,t,n);return null!=i&&r&&(i=r(i)),i}):null}function _t(t,n){return t.t-n.t}function Mt(n,r,e,i,u){var o,a="@"===e[0],l="#"===e[0],f=mt[e],s=h;switch(a?(o=e.substr(1),e=o.replace(bt,wt)):l&&(e=e.substr(1)),t(f)){case"function":if(s=f(i,u,kt,xt,e,a,r,n),l)return s;break;case"string":s=St(i,At(f));break;case"object":if((s=St(i,At(f.i),f.f))&&"function"==typeof f.u)return f.u(r,s,e,a,n)}return s?function(t,n,r){var e=arguments.length>3&&void 0!==arguments[3]&&arguments[3];if(e)return t instanceof pt?function(e){return t.style(n,r(e))}:function(e){return t.style[n]=r(e)};if(Array.isArray(n)){var i=n.length;return function(e){var u=r(e);if(null==u)for(var o=0;o<i;o++)t[o].removeAttribute(n);else for(var a=0;a<i;a++)t[a].setAttribute(n,u)}}return function(e){var i=r(e);null==i?t.removeAttribute(n):t.setAttribute(n,i)}}(r,e,s,a):null}function It(n,r,e,i){if(!i||"object"!==t(i))return null;var u=null,o=null;return Array.isArray(i)?o=function(t){if(!t||!t.length)return null;for(var n=0;n<t.length;n++)t[n].e&&(t[n].e=xt(t[n].e));return t.sort(_t)}(i):(o=i.keys,u=i.data||null),o?Mt(n,r,e,o,u):null}function Et(t,n,r){if(!r)return null;var e=[];for(var i in r)if(r.hasOwnProperty(i)){var u=It(t,n,i,r[i]);u&&e.push(u)}return e.length?e:null}function Ft(t,n){if(!n.duration||n.duration<0)return null;var r=function(t,n){if(!n)return null;var r=[];if(Array.isArray(n))for(var e=n.length,i=0;i<e;i++){var u=n[i];if(2===u.length){var o=null;if("string"==typeof u[0])o=t.getElementById(u[0]);else if(Array.isArray(u[0])){o=[];for(var a=0;a<u[0].length;a++)if("string"==typeof u[0][a]){var l=t.getElementById(u[0][a]);l&&o.push(l)}o=o.length?1===o.length?o[0]:new pt(o):null}if(o){var f=Et(t,o,u[1]);f&&(r=r.concat(f))}}}else for(var s in n)if(n.hasOwnProperty(s)){var c=t.getElementById(s);if(c){var v=Et(t,c,n[s]);v&&(r=r.concat(v))}}return r.length?r:null}(t,n.elements);return r?function(t,n){var r=arguments.length>2&&void 0!==arguments[2]?arguments[2]:1/0,e=arguments.length>3&&void 0!==arguments[3]?arguments[3]:1,i=arguments.length>4&&void 0!==arguments[4]&&arguments[4],u=arguments.length>5&&void 0!==arguments[5]?arguments[5]:1,o=t.length,a=e>0?n:0;i&&r%2==0&&(a=n-a);var l=null;return function(f,s){var c=f%n,v=1+(f-c)/n;s*=e,i&&v%2==0&&(s=-s);var h=!1;if(v>r)c=a,h=!0,-1===u&&(c=e>0?0:n);else if(s<0&&(c=n-c),c===l)return!1;l=c;for(var y=0;y<o;y++)t[y](c);return h}}(r,n.duration,n.iterations||1/0,n.direction||1,!!n.alternate,n.fill||1):null}var Bt=function(){function t(r){var e=arguments.length>1&&void 0!==arguments[1]?arguments[1]:{};n(this,t),this._id=0,this._running=!1,this._animations=r,this.direction=e.direction||1,this.speed=e.speed||1,this.fps=e.fps||100,this.offset=e.offset||0}return e(t,[{key:"_start",value:function(){var t=this,n=arguments.length>0&&void 0!==arguments[0]?arguments[0]:0,r=-1/0,e=null,i={},u=function u(o){t._running=!0,null==e&&(e=o);var a=Math.round((o-e+n)*t.speed),l=t.fps?1e3/t.fps:0;if(a>r+l){t.offset=a,r=a;for(var f=t._animations,s=f.length,c=0,v=0;v<s;v++)i[v]?c++:(i[v]=f[v](a,t.direction),i[v]&&c++);if(c===s)return void t._stop()}t._id=window.requestAnimationFrame(u)};this._id=window.requestAnimationFrame(u)}},{key:"_stop",value:function(){this._id&&window.cancelAnimationFrame(this._id),this._running=!1}},{key:"play",value:function(){this._running||this._start(this.offset)}},{key:"stop",value:function(){this._stop(),this.offset=0;var t=this.direction,n=this._animations;requestAnimationFrame((function(){for(var r=0;r<n.length;r++)n[r](0,t)}))}},{key:"restart",value:function(){this._stop(),this.offset=0,this._start()}},{key:"pause",value:function(){this._stop()}},{key:"reverse",value:function(){this.direction=-this.direction}}],[{key:"build",value:function(n){if(!(n=function(t){if(!t||!t.root||!Array.isArray(t.animations))return null;var n=window.document.getElementById(t.root);if(!n)return null;var r=t.animations.map((function(t){return Ft(n,t)})).filter((function(t){return!!t}));return r.length?{element:n,animations:r,options:t.options||void 0}:null}(n)))return null;var r=n.element,e=n.options||{},i=new t(n.animations,n.options);return function(t,n,r){var e=arguments.length>3&&void 0!==arguments[3]?arguments[3]:null;if("click"===r){var i=function r(){n.removeEventListener("click",r),t.play()};return void n.addEventListener("click",i)}if("hover"===r)return n.addEventListener("mouseenter",(function(){return t.play()})),void n.addEventListener("mouseleave","freeze"===e?function(){return t.pause()}:function(){return t.stop()});t.play()}(i,r,e.start,e.hover),i}}]),t}();return function(){for(var t=0,n=["ms","moz","webkit","o"],r=0;r<n.length&&!window.requestAnimationFrame;++r)window.requestAnimationFrame=window[n[r]+"RequestAnimationFrame"],window.cancelAnimationFrame=window[n[r]+"CancelAnimationFrame"]||window[n[r]+"CancelRequestAnimationFrame"];window.requestAnimationFrame||(window.requestAnimationFrame=function(n){var r=Date.now(),e=Math.max(0,16-(r-t)),i=window.setTimeout((function(){n(r+e)}),e);return t=r+e,i},window.cancelAnimationFrame=window.clearTimeout)}(),Bt}));
__SVGATOR_PLAYER__.build({"root":"evzu0vu3t2g81","animations":[{"duration":2000,"direction":1,"iterations":1,"fill":1,"alternate":false,"elements":{"evzu0vu3t2g82":{"transform":{"data":{"o":{"x":22.494708080000002,"y":133.2479475800002,"type":"corner"},"t":{"x":-19.530295950000003,"y":-80.6333}},"keys":{"s":[{"t":0,"v":{"x":1,"y":1},"e":[0.42,0,1,1]},{"t":500,"v":{"x":1,"y":0.5},"e":[0.42,0,1,1]},{"t":1000,"v":{"x":1,"y":1}}]}}},"evzu0vu3t2g83":{"transform":{"data":{"o":{"x":73.5,"y":133.24794758000002,"type":"corner"},"t":{"x":-19.3926,"y":-105.13464758000002}},"keys":{"s":[{"t":300,"v":{"x":1,"y":1},"e":[0.42,0,1,1]},{"t":900,"v":{"x":1,"y":0.5},"e":[0,0,0.58,1]},{"t":1500,"v":{"x":1,"y":1},"e":[0,0,0.58,1]}]}}},"evzu0vu3t2g84":{"transform":{"data":{"o":{"x":127.315,"y":133.24794758,"type":"corner"},"t":{"x":-19.099999999999994,"y":-133.24794758}},"keys":{"s":[{"t":700,"v":{"x":1,"y":1},"e":[0.42,0,1,1]},{"t":1300,"v":{"x":1,"y":0.5},"e":[0.42,0,1,1]},{"t":1900,"v":{"x":1,"y":1}}]}}}}}],"options":{"start":"hover","hover":"restart"}})]]></script></svg>