<?xml version="1.0" encoding="UTF-8"?>
  <svg xmlns="http://www.w3.org/2000/svg" version="1.1" viewBox="0 0 178.4 38.9" width="100%" height="auto">
  <defs>
    <style>
      .cls-1 {
        fill: #405bf2;
      }
    </style>
  </defs>
  <!-- Generator: Adobe Illustrator 28.7.1, SVG Export Plug-In . SVG Version: 1.2.0 Build 142)  -->
  <g>
    <g id="Layer_1">
      <g>
        <path d="M173.5,38.6l1.5-3-2-3.5h.9l1.6,2.7,1.3-2.7h.8l-3.3,6.5h-.8,0ZM171.9,33.7c0-.7-.4-1-1-1s-1.1.5-1.1,1.4v2.3h-.8v-4.2h.8v.7c.3-.5.8-.8,1.4-.8,1,0,1.5.7,1.5,1.5v2.8h-.8v-2.6h0ZM164.1,34.2c0,.9.6,1.5,1.5,1.5s1.5-.7,1.5-1.5-.6-1.5-1.5-1.5-1.5.7-1.5,1.5ZM167,32.1h.8v4.2h-.8v-.7c-.3.5-.9.8-1.5.8-1.2,0-2.1-1-2.1-2.2s.9-2.2,2.1-2.2,1.2.3,1.5.8v-.7h0ZM162,34.2c0-.9-.6-1.5-1.5-1.5s-1.5.7-1.5,1.5.6,1.5,1.5,1.5,1.5-.7,1.5-1.5ZM159.2,32.1v.7c.3-.5.9-.8,1.5-.8,1.2,0,2.1,1,2.1,2.2s-.9,2.2-2.1,2.2-1.2-.3-1.5-.8v3h-.8v-6.5h.8ZM153,32c.6,0,1.1.3,1.3.8.3-.4.8-.8,1.4-.8,1,0,1.5.7,1.5,1.5v2.9h-.8v-2.7c0-.7-.3-1-.9-1s-1.1.5-1.1,1.3v2.3h-.8v-2.7c0-.7-.3-1-.9-1s-1.1.5-1.1,1.3v2.3h-.8v-4.2h.8v.6c.3-.5.7-.7,1.3-.7h0ZM146.3,34.2c0,.9.6,1.5,1.5,1.5s1.5-.7,1.5-1.5-.6-1.5-1.5-1.5-1.5.7-1.5,1.5ZM145.6,34.2c0-1.2,1-2.2,2.2-2.2s2.2,1,2.2,2.2-1,2.2-2.2,2.2-2.2-1-2.2-2.2ZM143.8,32c.4,0,.8.1,1.1.3v.9c-.2-.3-.7-.5-1.1-.5-.8,0-1.5.6-1.5,1.5s.7,1.5,1.5,1.5.9-.2,1.1-.5v.9c-.3.2-.7.3-1.1.3-1.2,0-2.2-1-2.2-2.2s1-2.2,2.2-2.2h0ZM137.2,32.7c-.7,0-1.2.4-1.4,1.1h2.7c0-.6-.5-1.1-1.3-1.1ZM137.2,35.7c.7,0,1.1-.3,1.4-.9l.6.3c-.4.8-1.1,1.2-2,1.2-1.2,0-2.2-1-2.2-2.2s1-2.2,2.2-2.2,2.1.9,2.1,2.4h-3.5c0,.8.7,1.4,1.4,1.4h0ZM135,32.2l-.3.7c-.1-.1-.4-.2-.6-.2-.6,0-1,.5-1,1.3v2.3h-.8v-4.2h.8v.7c.2-.5.6-.8,1.2-.8s.5,0,.7.2h0ZM129.4,35.7c.6,0,1-.4,1-1.1v-2.6h.8v2.6c0,1-.8,1.7-1.8,1.7s-1.8-.7-1.8-1.7v-2.6h.8v2.6c0,.7.4,1.1,1,1.1h0ZM122.3,32c.6,0,1.1.3,1.3.8.3-.4.8-.8,1.4-.8,1,0,1.5.7,1.5,1.5v2.9h-.8v-2.7c0-.7-.4-1-.9-1s-1.1.5-1.1,1.3v2.3h-.8v-2.7c0-.7-.3-1-.9-1s-1.1.5-1.1,1.3v2.3h-.8v-4.2h.8v.6c.3-.5.7-.7,1.3-.7h0ZM114.8,32c.6,0,1.1.3,1.3.8.3-.4.8-.8,1.4-.8,1,0,1.5.7,1.5,1.5v2.9h-.8v-2.7c0-.7-.4-1-.9-1s-1.1.5-1.1,1.3v2.3h-.8v-2.7c0-.7-.3-1-.9-1s-1.1.5-1.1,1.3v2.3h-.8v-4.2h.8v.6c.3-.5.7-.7,1.3-.7h0ZM108.2,34.2c0,.9.6,1.5,1.5,1.5s1.5-.7,1.5-1.5-.6-1.5-1.5-1.5-1.5.7-1.5,1.5ZM107.4,34.2c0-1.2,1-2.2,2.2-2.2s2.2,1,2.2,2.2-1,2.2-2.2,2.2-2.2-1-2.2-2.2ZM105.7,32c.4,0,.8.1,1.1.3v.9c-.2-.3-.7-.5-1.1-.5-.8,0-1.5.6-1.5,1.5s.7,1.5,1.5,1.5.9-.2,1.1-.5v.9c-.3.2-.7.3-1.1.3-1.2,0-2.2-1-2.2-2.2s1-2.2,2.2-2.2h0ZM97.1,34.2c0,.9.6,1.5,1.5,1.5s1.5-.7,1.5-1.5-.6-1.5-1.5-1.5-1.5.7-1.5,1.5ZM100,32.1h.8v4.2h-.8v-.7c-.3.5-.9.8-1.5.8-1.2,0-2.1-1-2.1-2.2s.9-2.2,2.1-2.2,1.2.3,1.5.8v-.7h0Z"/>
        <path d="M55.6,20.4h-9.2l-1.9,4.6h-4.8L49.1,3.1h4l9.4,21.9h-4.9l-1.9-4.6h0ZM48,16.5h6l-3-7.3-3,7.3h0Z"/>
        <path d="M71.7,18.8v-8.4h4.4v8.6c0,3.8-2.9,6.4-6.8,6.4s-6.8-2.6-6.8-6.4v-8.6h4.4v8.4c0,1.7.9,2.7,2.4,2.7s2.4-1,2.4-2.7Z"/>
        <path d="M109.3,12.3c1.1-1.3,2.8-2.2,4.8-2.2,3.2,0,5.3,2.1,5.3,5.3v9.6h-4.4v-8.4c0-1.6-.9-2.6-2.3-2.6s-2.5,1.2-2.5,3v8h-4.4v-8.4c0-1.6-.8-2.6-2.3-2.6s-2.5,1.2-2.5,3v8h-4.4v-14.6h4.4v1.7c.8-1.1,2.3-2,4.2-2s3.4.8,4.2,2.2Z"/>
        <path d="M153.3,3.1v21.9h-4.4v-1.7c-.8,1.1-2.5,2.1-4.5,2.1-4,0-7.2-3.3-7.2-7.7s3.2-7.7,7.2-7.7,3.7,1,4.5,2.1V3.1h4.4ZM145.2,21.6c2.1,0,3.8-1.7,3.8-3.8s-1.6-3.8-3.8-3.8-3.7,1.7-3.7,3.8,1.6,3.8,3.7,3.8Z"/>
        <path d="M155.5,5.4c0-1.5,1.2-2.6,2.6-2.6s2.6,1.2,2.6,2.6-1.2,2.6-2.6,2.6-2.6-1.2-2.6-2.6ZM160.4,10.4v14.6h-4.4v-14.6h4.4Z"/>
        <path d="M166.8,10.4l2.7,4,2.9-4h4.7l-5.1,6.9,5.6,7.7h-5l-3.3-4.6-3.3,4.6h-4.8l5.7-7.5-5.2-7.1h5Z"/>
        <path d="M21.8,19.6c-1.7,2.2-4.4,3.6-7.3,3.6-5.1,0-9.2-4.1-9.2-9.2S9.4,4.8,14.5,4.8s4.6.9,6.3,2.7c1.7,1.7,2.7,4.1,2.9,6.7,0,.2,0,.4,0,.5.1,2.1.3,4.8,1.4,7.2,1.3,2.8,3.6,4.7,6.7,5.5l1.8-4.2c-4.6-1-5.2-4.2-5.5-8.9,0-.2,0-.4,0-.5C27.7,6.2,21.8.3,14.5.3S.8,6.5.8,14s6.1,13.7,13.7,13.7,8.4-2.1,10.9-5.4l-3.6-2.7h0Z"/>
        <path class="cls-1" d="M14.5,15.8c1,0,1.8-.8,1.8-1.8s-.8-1.8-1.8-1.8-1.8.8-1.8,1.8.8,1.8,1.8,1.8Z"/>
        <path class="cls-1" d="M19.7,15.8c1,0,1.8-.8,1.8-1.8s-.8-1.8-1.8-1.8-1.8.8-1.8,1.8.8,1.8,1.8,1.8Z"/>
        <path class="cls-1" d="M9.3,15.8c1,0,1.8-.8,1.8-1.8s-.8-1.8-1.8-1.8-1.8.8-1.8,1.8.8,1.8,1.8,1.8Z"/>
        <path d="M89.4,10.4v1.7c-.9-1.1-2.5-2.1-4.5-2.1-4,0-7.2,3.3-7.2,7.7s3.2,7.7,7.2,7.7,3.7-1,4.5-2.1v1.9c0,2.6-1.6,3.9-3.6,3.9s-3.3-1.1-3.4-2.9l-4.1,1.5c.9,3.1,3.9,5,7.5,5s8.1-2.9,8.1-7.7v-14.6h-4.4ZM85.7,21.5c-2.1,0-3.8-1.7-3.8-3.8s1.6-3.8,3.8-3.8,3.7,1.7,3.7,3.8-1.6,3.8-3.7,3.8Z"/>
        <path d="M132.2,19.6c-.8,1.3-1.8,2.1-3.5,2.1s-3.1-1-3.6-2.9h10.7c.3-5.1-2.5-8.9-7.3-8.9s-7.5,3.2-7.5,7.7,3.5,7.7,7.7,7.7,4.8-1.1,6.2-2.9l-2.7-2.8h0ZM128.6,13.6c1.9,0,2.9,1.3,3.1,2.5h-6.4c.5-1.6,1.8-2.5,3.3-2.5h0Z"/>
      </g>
    </g>
  </g>
</svg>